<?xml version="1.0" encoding="utf-8"?>
<!-- Generator: Adobe Illustrator 21.1.0, SVG Export Plug-In . SVG Version: 6.00 Build 0)  -->
<svg version="1.1" id="Capa_1" xmlns="http://www.w3.org/2000/svg" xmlns:xlink="http://www.w3.org/1999/xlink" x="0px" y="0px"
	 viewBox="0 0 214 85" style="enable-background:new 0 0 214 85;" xml:space="preserve">
<style type="text/css">
	.st0{fill-rule:evenodd;clip-rule:evenodd;fill:#92979C;}
	.st1{opacity:0.7;fill:#A6ABB0;}
	.st2{fill-rule:evenodd;clip-rule:evenodd;fill:#A6ABB0;}
	.st3{fill:#A6ABB0;}
	.st4{fill:#92979C;}
	.st5{fill:#535353;}
	.st6{fill:#292626;}
	.st7{fill:#FEFEFE;}
	.st8{fill:#8F9396;}
	.st9{fill:#892655;}
	.st10{fill:#B9BDC0;}
	.st11{fill:#DEDEDE;}
	.st12{fill:#E2DEDB;}
	.st13{fill:#BBBCBE;}
	.st14{fill:#A4957B;}
	.st15{fill:none;}
</style>
<g>
	<g>
		<path class="st0" d="M68.8,61c-3.1-0.9-5.8-2.2-7.8-4.8c-3.7-4.7-3.8-11.2-0.1-15.9c3.8-4.8,10.2-6.3,15.7-3.8
			c0.4,0.2,0.8,0.4,1.5,0.7c0-4.6,0-9,0-13.3c1.9,0,3.7,0,5.6,0c0,2.7,0.1,5.4,0.1,8.1c0,9.1,0,18.1,0,27.2c0,0.6-0.1,1.2-0.1,1.8
			c-1.9,0-3.7,0-5.6,0c0-0.6,0-1.2,0-1.8c-1.8,0.7-3.4,1.3-5,1.8C71.7,61,70.3,61,68.8,61z M71.1,41.2c-4,0-7.2,3.1-7.1,7.1
			c0,3.9,3.3,7.1,7.2,7.1c3.8,0,7-3.3,7-7.1C78.1,44.2,75,41.2,71.1,41.2z"/>
		<path class="st0" d="M120.7,61c-3-0.8-5.6-2.1-7.7-4.5c-3.8-4.4-4.1-11-0.7-15.8c3.5-4.9,9.9-6.7,15.4-4.4c0.6,0.3,1.3,0.6,2,0.9
			c0.1-0.7,0.1-1.2,0.2-1.8c1.9,0,3.6,0,5.6,0c0,8.5,0,17.1,0,25.6c-1.9,0-3.7,0-5.6,0c-0.1-0.6-0.2-1.2-0.2-1.8
			c-1.7,0.6-3.2,1.2-4.7,1.8C123.6,61,122.1,61,120.7,61z M122.8,41.1c-4,0-7.1,3.1-7,7.1c0,3.9,3.2,7,7,7c3.9,0,7.1-3.3,7.1-7.2
			C129.8,44.2,126.7,41.1,122.8,41.1z"/>
		<path class="st0" d="M165.3,24c0,2.9,0,5.9,0,9.1c2.5,0,5,0,7.5,0c0,2,0,3.8,0,5.7c-2.5,0-4.9,0-7.6,0c0,1,0,1.8,0,2.7
			c0,1.9,0.1,3.9,0,5.8c-0.1,3.2,1,5.7,3.9,7.3c2.9,1.5,5.6,1,8.2-1.2c1.4,1.3,2.9,2.5,4.3,3.8c0,0.1,0,0.2,0,0.3
			c-2.2,1.7-4.5,3.1-7.3,3.6c-1.4,0-2.9,0-4.3,0c-1.8-0.8-3.7-1.4-5.3-2.5c-3.6-2.5-5.3-6.1-5.3-10.4c0-8,0-16,0-24.1
			C161.4,24,163.4,24,165.3,24z"/>
		<path class="st0" d="M96.9,61c-2.7-0.9-5.2-2-7.1-4.1c-4.4-4.8-4.6-12.2-0.3-17c4.5-5.1,11.6-6,17.1-2c1,0.7,1.9,1.6,3,2.5
			c-1.5,1.3-2.9,2.5-4.3,3.7c-5.3-3.7-8.7-3.8-11.5-0.4c-2.3,2.8-2.1,7.1,0.6,9.6c3.2,3,6.5,2.7,11.2-1.3c1.2,1.4,2.4,2.8,3.6,4.4
			c-1.8,2.2-4.7,3.7-7.9,4.7C99.8,61,98.4,61,96.9,61z"/>
		<path class="st2" d="M32.5,57.4c0.3-0.7,0.5-1.5,0.9-2.1c0.3-0.5,0.9-0.7,1.4-1.2c1.1,3.1,1.4,3.2,4.5,2.7
			c6.8-1.3,11.3-5.4,13.9-11.6c0.7-1.8,0.2-2.7-1.7-2.7c-4-0.1-7.5,1.4-10.6,3.8c-0.7,0.6-1.5,1.8-2.5,0.7c-0.9-1-0.3-2.1,0.5-2.9
			c1.9-2,3.8-4,5.5-6.2c-2,1-4,1.9-5.9,2.9c-1.8-1.6-1.5-3,0.6-4c3.7-1.7,7.4-3.6,11.1-5.4c0.6-0.3,1.4,0,2.1-0.1
			c0,0.7,0.2,1.5-0.2,2c-1.2,1.7-2.5,3.2-3.8,4.8c-0.3,0.4-0.7,0.8-1.2,1.4c1.6-0.3,2.8-0.6,4-0.8c0.4-0.1,0.9-0.1,1.3-0.2
			c4.4-0.2,6.1,1.9,4.6,6.1c-2.1,5.6-6.3,9.6-11.2,12.8c-2.8,1.8-5.9,2.9-9.1,3.6c-1.4,0-2.9,0-4.3,0C32.5,59.8,32.5,58.6,32.5,57.4
			z"/>
		<path class="st0" d="M138.6,61c0-8.5,0-16.9,0-25.5c1.8,0,3.6,0,5.5,0c0.1,0.5,0.2,1.1,0.3,1.8c4.8-2.5,9.5-2.6,14.6,0.5
			c-1.4,1.3-2.7,2.5-4,3.6c-0.3,0.2-0.9,0.2-1.3,0.1c-5.2-1.3-9.3,1.8-9.3,7.2c0,4.1,0,8.3,0,12.4C142.3,61,140.4,61,138.6,61z"/>
	</g>
</g>
</svg>
