<?xml version="1.0" encoding="utf-8"?>
<!-- Generator: Adobe Illustrator 21.1.0, SVG Export Plug-In . SVG Version: 6.00 Build 0)  -->
<svg version="1.1" id="Capa_1" xmlns="http://www.w3.org/2000/svg" xmlns:xlink="http://www.w3.org/1999/xlink" x="0px" y="0px"
	 viewBox="0 0 214 85" style="enable-background:new 0 0 214 85;" xml:space="preserve">
<style type="text/css">
	.st0{fill-rule:evenodd;clip-rule:evenodd;fill:#92979C;}
	.st1{opacity:0.7;fill:#A6ABB0;}
	.st2{fill-rule:evenodd;clip-rule:evenodd;fill:#A6ABB0;}
	.st3{fill:#A6ABB0;}
	.st4{fill:#92979C;}
	.st5{fill:#535353;}
	.st6{fill:#292626;}
	.st7{fill:#FEFEFE;}
	.st8{fill:#8F9396;}
	.st9{fill:#892655;}
	.st10{fill:#B9BDC0;}
	.st11{fill:#DEDEDE;}
	.st12{fill:#E2DEDB;}
	.st13{fill:#BBBCBE;}
	.st14{fill:#A4957B;}
	.st15{fill:none;}
</style>
<g>
	<g>
		<path class="st0" d="M73.4,72.7c-0.1,0-0.1-0.1-0.2-0.1c-5.7-1.6-11.3-3.1-17-4.7c-0.1,0-0.2-0.1-0.2-0.2c-0.1-1-0.2-2-0.3-3
			c-0.1-1.1-0.2-2.2-0.3-3.3c-0.1-1-0.2-1.9-0.2-2.9c-0.1-1.2-0.2-2.5-0.3-3.7c-0.1-1-0.2-1.9-0.2-2.9c-0.1-1-0.2-1.9-0.3-2.9
			c-0.1-0.8-0.1-1.6-0.2-2.4c-0.1-1-0.2-1.9-0.3-2.9c-0.1-0.8-0.1-1.6-0.2-2.4c-0.1-0.8-0.2-1.6-0.2-2.4c-0.1-0.8-0.1-1.6-0.2-2.4
			c-0.1-0.8-0.1-1.6-0.2-2.4c-0.1-0.8-0.1-1.6-0.2-2.4c-0.1-0.8-0.1-1.7-0.2-2.5c-0.1-0.8-0.1-1.5-0.2-2.3c-0.1-0.8-0.2-1.7-0.2-2.5
			c0,0,0-0.1,0-0.1c14.2,0,28.5,0,42.7,0c0,0.5-0.1,1-0.1,1.4c-0.1,0.7-0.1,1.3-0.2,2c-0.1,0.8-0.1,1.7-0.2,2.5
			c-0.1,0.8-0.1,1.6-0.2,2.4c-0.1,0.8-0.1,1.6-0.2,2.4c-0.1,0.8-0.1,1.6-0.2,2.4c-0.1,0.8-0.2,1.7-0.2,2.5c-0.1,0.8-0.1,1.6-0.2,2.4
			c-0.1,0.8-0.1,1.6-0.2,2.4c-0.1,0.7-0.1,1.3-0.2,2c-0.1,0.8-0.1,1.6-0.2,2.5c-0.1,0.8-0.1,1.6-0.2,2.4c-0.1,0.8-0.1,1.6-0.2,2.5
			c-0.1,0.8-0.1,1.6-0.2,2.4c-0.1,0.8-0.1,1.6-0.2,2.5c-0.1,0.8-0.1,1.6-0.2,2.4c-0.1,0.8-0.1,1.7-0.2,2.5c-0.1,0.8-0.1,1.6-0.2,2.4
			c-0.1,0.6-0.1,1.2-0.2,1.8c0,0.1-0.1,0.1-0.2,0.1c-0.9,0.3-1.8,0.5-2.7,0.7c-4.8,1.3-9.7,2.7-14.5,4
			C73.6,72.7,73.6,72.7,73.4,72.7C73.5,72.7,73.5,72.7,73.4,72.7z M61.8,52c0,0.1,0,0.1,0,0.1c0.1,1.4,0.3,2.8,0.4,4.1
			c0.1,1.3,0.2,2.6,0.3,3.9c0,0.1,0.1,0.2,0.2,0.2c3.6,1,7.1,2,10.7,3c0.1,0,0.2,0,0.2,0c2-0.6,4.1-1.1,6.1-1.7
			c1.5-0.4,3-0.8,4.5-1.3c0.2,0,0.2-0.1,0.2-0.3c0-0.5,0.1-1,0.1-1.5c0.1-0.6,0.1-1.3,0.2-1.9c0.1-0.7,0.1-1.4,0.2-2
			c0.1-0.6,0.1-1.3,0.2-1.9c0.1-0.7,0.1-1.3,0.2-2c0.1-0.6,0.1-1.3,0.2-1.9c0.1-0.7,0.1-1.3,0.2-2c0.1-0.7,0.1-1.4,0.2-2
			c0-0.3,0-0.6,0.1-0.9c-6.5,0-13,0-19.5,0c-0.2-1.8-0.3-3.6-0.5-5.4c0.1,0,0.2,0,0.3,0c2.5,0,5,0,7.5,0c4.1,0,8.3,0,12.4,0
			c0.1,0,0.1,0,0.2,0c0.1,0,0.2,0,0.2-0.1c0-0.3,0-0.6,0.1-1c0.1-1.2,0.2-2.5,0.3-3.7c0-0.2,0-0.4,0-0.6c-9,0-17.9,0-26.8,0
			c0.5,5.4,1,10.8,1.4,16.2c0.1,0,0.2,0,0.3,0c6,0,12,0,17.9,0c0.3,0,0.3,0,0.3,0.3c0,0.1,0,0.2,0,0.3c-0.1,1.1-0.2,2.2-0.3,3.3
			c-0.1,1-0.2,1.9-0.2,2.9c0,0.1-0.1,0.2-0.2,0.3c-1.9,0.5-3.7,1-5.6,1.5c-0.1,0-0.2,0-0.3,0c-1.9-0.5-3.7-1-5.6-1.5
			c-0.2,0-0.2-0.1-0.2-0.3c-0.1-0.9-0.2-1.9-0.2-2.8c0-0.4-0.1-0.8-0.1-1.2C65.4,52,63.6,52,61.8,52z"/>
		<path class="st2" d="M78.5,19.5c-0.6-1-1.2-1.9-1.9-2.9c0,0,0,0,0,0c0,1.3,0,2.6,0,4c-0.9,0-1.8,0-2.6,0c0-2.7,0-5.4,0-8.1
			c0.1,0,0.1,0,0.2,0c0.8,0,1.7,0,2.5,0c0.1,0,0.2,0.1,0.2,0.1c0.5,0.8,1,1.7,1.5,2.5c0,0.1,0.1,0.1,0.1,0.2c0.3-0.5,0.6-1,0.9-1.4
			c0.3-0.4,0.5-0.9,0.8-1.3c0-0.1,0.1-0.1,0.2-0.1c0.9,0,1.8,0,2.6,0c0,0,0,0,0.1,0c0,2.7,0,5.4,0,8.1c-0.9,0-1.8,0-2.7,0
			c0-1.3,0-2.6,0-3.9c0,0,0,0,0,0C79.7,17.5,79.1,18.5,78.5,19.5z"/>
		<path class="st2" d="M61.3,12.4c0.9,0,1.8,0,2.7,0c0,2.7,0,5.4,0,8.1c-0.9,0-1.8,0-2.7,0c0-0.9,0-1.8,0-2.7c-0.8,0-1.7,0-2.5,0
			c0,0.9,0,1.8,0,2.7c-0.9,0-1.8,0-2.7,0c0-2.7,0-5.4,0-8.1c0.9,0,1.8,0,2.7,0c0,0.9,0,1.8,0,2.7c0.8,0,1.6,0,2.5,0
			C61.3,14.2,61.3,13.3,61.3,12.4z"/>
		<path class="st2" d="M70.3,20.6c-0.9,0-1.8,0-2.7,0c0-1.8,0-3.6,0-5.4c-0.8,0-1.6,0-2.4,0c0-0.9,0-1.8,0-2.7c2.5,0,5,0,7.5,0
			c0,0.9,0,1.8,0,2.7c-0.8,0-1.6,0-2.4,0C70.3,16.9,70.3,18.7,70.3,20.6z"/>
		<path class="st2" d="M91,20.6c-2.2,0-4.3,0-6.5,0c0-2.7,0-5.4,0-8.1c0.9,0,1.8,0,2.7,0c0,1.8,0,3.6,0,5.4c1.3,0,2.5,0,3.8,0
			C91,18.8,91,19.6,91,20.6z"/>
		<g>
			<path class="st3" d="M73.4,57.9c1.9-0.5,3.9-1,5.7-1.5c0.2,0,0.3-0.1,0.3-0.3c0.1-1,0.2-1.9,0.3-2.9c0.1-1.1,0.2-2.2,0.3-3.3
				c0-0.1,0-0.2,0-0.3c0-0.3-0.2-0.3-0.5-0.3c-2.1,0-4.5,0-6.5,0v8.5C73,57.9,73.3,57.9,73.4,57.9z"/>
			<path class="st3" d="M73,28.2v5c4,0,9.4,0,13.9,0c0,0,0,0.4,0,0.6c-0.1,1.2-0.2,2.5-0.3,3.7c0,0.3-0.1,0.6-0.1,1
				c0,0.1-0.1,0.2-0.2,0.1c-0.1,0-0.1,0.3-0.2,0.3c-4.1,0-8.3,0.3-12.4,0.3c-0.1,0-0.7,0-0.7,0v5c4,0,8.8,0,13,0c0,0,0,0.5-0.1,0.8
				c-0.1,0.7-0.1,1.3-0.2,2c-0.1,0.7-0.1,1.3-0.2,2c-0.1,0.6-0.1,1.3-0.2,1.9c-0.1,0.7-0.1,1.3-0.2,2c-0.1,0.6-0.1,1.3-0.2,1.9
				c-0.1,0.7-0.1,1.4-0.2,2c-0.1,0.6-0.1,1.3-0.2,1.9c0,0.5-0.1,1-0.1,1.5c0,0.2-0.1,0.2-0.2,0.3c-1.5,0.4-3,0.8-4.5,1.3
				c-2,0.6-4.3,1.1-6.3,1.7c0,0-0.4,0-0.4,0V69l14.4-3.8l3.6-37.1H73z"/>
		</g>
	</g>
	<g>
		<polygon class="st3" points="135,15.2 131,15.2 131,18.2 135,18.2 135,21.2 127,21.2 127,12.2 135,12.2 		"/>
		<polygon class="st3" points="137,12.2 137,14.7 139.3,18.2 137,18.2 137,21.2 144,21.2 144,18.1 141.5,15.2 144,15.2 144,12.2 		
			"/>
		<polygon class="st3" points="146,12.2 146,14.7 148.6,18.2 146,18.2 146,21.2 153,21.2 153,18.1 150.8,15.2 153,15.2 153,12.2 		
			"/>
		<path class="st4" d="M118.8,24.2l3.6,43.7l17.9,4.9L158,68l3.8-43.8H118.8z M154,38.4l-12.8,4.8h11.4l-1.4,16.7l-10.9,3.5
			l-11.3-3.1l-0.7-8.1h5.3l0.6,3.9l6.2,1.5l5.8-1.3l0.6-7.1h-18.7l-0.8-5.1l12.7-5.6l-12.9,0l-0.7-5.3H154V38.4z"/>
		<g>
			<polygon class="st3" points="146.9,49.2 140,49.2 140,57.5 146,56.2 			"/>
			<polygon class="st3" points="140,28.2 140,33.2 154,33.2 154,38.4 141.2,43.2 152.6,43.2 151,59.8 140,63.4 140,68.4 154.7,64.4 
				158.2,28.2 			"/>
		</g>
	</g>
</g>
</svg>
