<?xml version="1.0" encoding="utf-8"?>
<!-- Generator: Adobe Illustrator 21.1.0, SVG Export Plug-In . SVG Version: 6.00 Build 0)  -->
<svg version="1.1" id="Capa_1" xmlns="http://www.w3.org/2000/svg" xmlns:xlink="http://www.w3.org/1999/xlink" x="0px" y="0px"
	 viewBox="0 0 214 85" style="enable-background:new 0 0 214 85;" xml:space="preserve">
<style type="text/css">
	.st0{fill-rule:evenodd;clip-rule:evenodd;fill:#92979C;}
	.st1{opacity:0.7;fill:#A6ABB0;}
	.st2{fill-rule:evenodd;clip-rule:evenodd;fill:#A6ABB0;}
	.st3{fill:#A6ABB0;}
	.st4{fill:#92979C;}
	.st5{fill:#535353;}
	.st6{fill:#292626;}
	.st7{fill:#FEFEFE;}
	.st8{fill:#8F9396;}
	.st9{fill:#892655;}
	.st10{fill:#B9BDC0;}
	.st11{fill:#DEDEDE;}
	.st12{fill:#E2DEDB;}
	.st13{fill:#BBBCBE;}
	.st14{fill:#A4957B;}
	.st15{fill:none;}
</style>
<g>
	<g>
		<g>
			<g>
				<path class="st0" d="M57.4,49.6c0-5.5,0-11,0-16.5c0.1,0,0.2-0.1,0.3-0.1c2.3,0,4.6,0,6.8,0.1c0.8,0,1.7,0.3,2.4,0.6
					c1.4,0.6,2.1,1.8,2.1,3.3c0,1.6-0.5,2.8-1.9,3.5c-0.1,0.1-0.3,0.1-0.4,0.2c0.1,0.1,0.2,0.1,0.3,0.2c1.7,0.6,2.6,1.8,2.6,3.6
					c0,1.7-0.5,3.1-2,4c-1.2,0.7-2.5,1-3.8,1c-2,0-4,0-6,0C57.7,49.7,57.6,49.6,57.4,49.6z M60,47.4c0.1,0,0.2,0.1,0.2,0.1
					c1.1,0,2.1,0,3.2,0c0.6,0,1.2-0.1,1.8-0.2c1.2-0.3,1.8-1.2,1.8-2.5c0-1.2-0.6-2-1.8-2.3c-0.3-0.1-0.7-0.2-1-0.2
					c-1.3,0-2.6-0.1-3.8-0.1c-0.1,0-0.2,0-0.3,0.1C60,43.9,60,45.7,60,47.4z M60,39.9c0.1,0,0.2,0.1,0.3,0.1c1.1,0,2.3,0,3.4,0
					c0.6,0,1.1-0.2,1.7-0.3c0.5-0.2,0.9-0.6,1.1-1.1c0.5-1.5-0.1-2.7-1.7-2.9c-1.5-0.2-2.9-0.2-4.4-0.2c-0.1,0-0.3,0.2-0.3,0.3
					C59.9,37,60,38.4,60,39.9z"/>
				<path class="st0" d="M78.6,48.3c-1-1.3-0.9-2.2,0.5-3.6c0-0.1-0.1-0.1-0.1-0.2c-1.6-1.3-2.1-3-1.4-4.9c0.5-1.5,2-2.6,3.9-2.7
					c0.9,0,1.8,0.1,2.7,0.1c1.3,0,2.6,0,3.9,0c0.2,0,0.4,0,0.7,0c0,0.6,0,1.1,0,1.7c-0.6,0.1-1.3,0.2-2,0.3c0,0.1,0.1,0.3,0.1,0.4
					c1.1,2.7-0.4,5.4-3.3,5.8c-0.7,0.1-1.4,0.1-2.1,0.1c-0.5,0-1.3,0.7-1.2,1.2c0,0.2,0.3,0.5,0.5,0.5c0.4,0.1,0.8,0.1,1.1,0.1
					c1.3,0.1,2.6,0,3.8,0.2c1.6,0.2,2.7,1.2,2.9,2.5c0.3,1.8-0.3,3.2-1.7,4.1c-1,0.6-2.2,0.9-3.3,1c-1.7,0.1-3.3,0.2-4.9-0.4
					c-1.5-0.6-2.3-1.7-2.3-3.3c0-1.2,0.6-2,1.6-2.6C78.2,48.5,78.4,48.4,78.6,48.3z M81.9,53.2c0,0,0-0.1,0-0.1c0.3,0,0.5,0,0.8,0
					c1-0.1,2-0.2,2.8-0.9c0.6-0.5,0.8-1.1,0.6-1.8c-0.1-0.6-0.7-0.8-1.3-0.9c-1.5,0-2.9-0.1-4.4,0c-0.4,0-0.8,0.2-1.1,0.4
					c-0.6,0.4-0.7,1-0.7,1.6c0,0.6,0.4,1.1,1,1.2C80.5,52.9,81.2,53,81.9,53.2z M79.8,41.2c0,1.5,0.9,2.3,2.5,2.3
					c1.7,0,2.5-0.8,2.5-2.3c0-1.6-0.8-2.4-2.5-2.4C80.7,38.8,79.8,39.6,79.8,41.2z"/>
				<path class="st0" d="M118.1,49.6c-0.8,0-1.6,0-2.5,0c0-4.2,0-8.3,0-12.6c0.6,0,1.2,0,1.8,0c0.1,0,0.3,0.2,0.3,0.3
					c0.1,0.3,0.1,0.5,0.2,0.9c1.1-1.1,2.4-1.5,3.9-1.5c1.5,0.1,2.8,0.4,3.7,1.8c0.8-0.9,1.7-1.5,2.9-1.7c1-0.2,2-0.2,3,0.1
					c1.6,0.5,2.6,1.7,2.7,3.5c0.1,1.2,0.1,2.3,0.1,3.5c0,1.6,0,3.3,0,4.9c0,0.2,0,0.4,0,0.6c-0.8,0-1.6,0-2.5,0c0-0.2,0-0.4,0-0.6
					c0-2.4,0-4.7,0-7.1c0-0.5-0.1-1-0.2-1.5c-0.2-0.7-0.7-1.2-1.4-1.3c-1.8-0.3-3.7,0.2-3.9,2.6c0,0.4-0.1,0.8-0.1,1.1
					c0,2.2,0,4.5,0,6.7c-0.8,0-1.6,0-2.5,0c0-0.2,0-0.4,0-0.6c0-2.5,0-5,0-7.5c0-0.2,0-0.4,0-0.7c-0.2-1.5-1.2-2.1-2.8-1.9
					c-1.5,0.2-2.3,0.9-2.5,2.4c-0.1,0.5-0.1,1.1-0.1,1.6C118.1,45.2,118.1,47.4,118.1,49.6z"/>
				<path class="st0" d="M147.2,38.6c1.8-1.9,3.9-2.1,6.2-1.4c1.6,0.5,2.4,1.8,2.4,3.4c0.1,2.9,0,5.9,0.1,8.8c0,0.1,0,0.1-0.1,0.2
					c-0.8,0-1.6,0-2.4,0c0-0.2,0-0.4,0-0.6c0-2.4,0-4.9,0-7.3c0-2.1-1.1-2.9-3.1-2.6c-1.6,0.3-2.4,1.3-2.4,3.1c0,2.2,0,4.5,0,6.7
					c0,0.2,0,0.4,0,0.7c-0.8,0-1.6,0-2.5,0c0-0.2,0-0.4,0-0.7c0-2.4,0-4.9,0-7.3c0-0.2,0-0.3,0-0.5c-0.1-1.5-0.9-2.2-2.3-2.2
					c-2,0-3.1,1.1-3.2,3.2c-0.1,2.2-0.1,4.5,0,6.7c0,0.6-0.2,0.7-0.7,0.7c-0.6,0-1.1,0-1.8,0c0-4.2,0-8.3,0-12.5c0.6,0,1.3,0,2,0
					c0.1,0.4,0.2,0.7,0.3,1.2c1.1-1.1,2.4-1.5,3.9-1.5C145,36.9,146.3,37.3,147.2,38.6z"/>
				<path class="st0" d="M169.5,44c-1.5,0-2.9,0-4.3,0c-1.4,0-2.8,0-4.3,0c-0.2,1.9,1.3,3.6,3.2,3.7c1.5,0.1,2.9-0.2,4.3-0.7
					c0.1-0.1,0.3-0.1,0.4-0.2c0,0,0.1,0,0.1,0c0,0.6,0,1.3,0,1.9c0,0.1-0.1,0.3-0.3,0.3c-2.3,0.9-4.7,1.1-7,0.2
					c-1.7-0.6-2.7-1.9-3.2-3.6c-0.5-2-0.4-4,0.5-5.8c1.2-2.4,3.7-3.5,6.5-2.9c2.4,0.5,3.9,2.5,4,5.2C169.6,42.8,169.5,43.3,169.5,44
					z M166.8,41.9c0.1-1.8-1-2.9-2.8-2.9c-1.7,0-3.1,1.3-3.1,2.9C163,41.9,164.9,41.9,166.8,41.9z"/>
				<path class="st0" d="M202.9,44c-2.9,0-5.7,0-8.6,0c-0.3,1.9,1.3,3.6,3.2,3.7c1.4,0.1,2.8-0.2,4.2-0.7c0.2-0.1,0.4-0.1,0.7-0.2
					c0,0.7,0,1.4,0,2c0,0.1-0.1,0.2-0.2,0.3c-2.5,0.9-5,1.2-7.4,0c-1.8-0.8-2.7-2.4-2.9-4.3c-0.2-1.5-0.1-3,0.4-4.4
					c1.6-4.4,7.2-4.3,9.3-2c0.9,1,1.3,2.1,1.4,3.4C202.9,42.5,202.9,43.2,202.9,44z M200.2,41.9c0-1.9-1.1-3-2.9-2.9
					c-1.6,0-3,1.3-2.9,2.9C196.3,41.9,198.3,41.9,200.2,41.9z"/>
				<path class="st0" d="M113.2,43.4c-0.2,0.9-0.3,1.8-0.5,2.7c-0.8,2.5-3,3.9-5.8,3.8c-3.5-0.1-5.8-2.5-5.9-6c0-0.9,0-1.8,0.2-2.7
					c0.5-2.3,2-3.8,4.4-4.2c2.1-0.4,4.1-0.1,5.7,1.4C112.6,39.7,113,41.5,113.2,43.4z M110.6,43.4c0,0-0.1,0-0.1,0
					c0-0.4,0-0.9-0.1-1.3c-0.1-0.4-0.2-0.7-0.3-1.1c-0.5-1.3-1.5-2-3-2c-1.6,0-2.7,0.5-3.2,1.9c-0.7,1.7-0.7,3.4,0,5.1
					c0.6,1.3,1.7,1.8,3,1.8c1.4,0,2.5-0.5,3-1.8C110.3,45.1,110.4,44.2,110.6,43.4z"/>
				<path class="st0" d="M99.4,47c0,0.7,0,1.3,0,2c0,0.1-0.1,0.3-0.2,0.3c-1.7,0.8-5.5,1.1-7.3-0.8c-0.6-0.6-1.1-1.3-1.4-2.1
					c-0.7-1.9-0.7-3.9,0-5.9c0.6-1.9,2-3,3.9-3.4c1.6-0.4,3.2-0.2,4.7,0.3c0.2,0.1,0.5,0.2,0.7,0.3c-0.3,0.7-0.5,1.3-0.8,2
					c-0.9-0.2-1.8-0.4-2.7-0.5c-2.1-0.2-3.5,1-3.7,3.1c-0.1,1-0.1,1.9,0.1,2.9c0.3,1.8,1.5,2.7,3.4,2.6c0.9-0.1,1.8-0.3,2.7-0.5
					C99,47.1,99.2,47,99.4,47z"/>
				<path class="st0" d="M190.5,37.6c-0.3,0.7-0.5,1.4-0.8,2c-0.7-0.2-1.4-0.4-2-0.5c-2.4-0.5-3.9,0.6-4.3,3
					c-0.2,1.2-0.2,2.4,0.3,3.6c0.5,1.3,1.4,1.9,2.7,2c1.1,0.1,2.1-0.1,3.2-0.5c0.2-0.1,0.4-0.1,0.7-0.2c0,0.7,0,1.3,0,2
					c0,0.1-0.2,0.3-0.3,0.4c-2.2,0.8-4.4,0.9-6.6-0.3c-1.1-0.6-1.8-1.6-2.2-2.7c-0.6-2-0.7-3.9,0-5.9c0.7-1.8,2-3,3.9-3.4
					c1.5-0.3,3-0.2,4.5,0.2C189.9,37.4,190.1,37.5,190.5,37.6z"/>
				<path class="st0" d="M174.5,49.6c-0.9,0-1.6,0-2.5,0c0-4.2,0-8.3,0-12.6c0.6,0,1.2,0,1.9,0c0.1,0,0.2,0.2,0.3,0.4
					c0.1,0.4,0.1,0.8,0.2,1.4c1.5-1.9,3.4-2.3,5.6-1.8c-0.1,0.7-0.2,1.5-0.3,2.2c-0.7,0-1.4-0.2-2.1-0.1c-1.7,0.2-3,1.8-3,3.6
					c0,2.1,0,4.1,0,6.2C174.5,49.2,174.5,49.4,174.5,49.6z"/>
				<path class="st0" d="M72.2,37.1c0.8,0,1.6,0,2.4,0c0,4.2,0,8.3,0,12.5c-0.8,0-1.6,0-2.4,0C72.2,45.4,72.2,41.3,72.2,37.1z"/>
				<path class="st0" d="M72,34.1c0-0.9,0.5-1.5,1.4-1.5c0.9,0,1.4,0.6,1.4,1.5c0,0.9-0.5,1.5-1.4,1.5C72.5,35.6,72,35.1,72,34.1z"
					/>
			</g>
		</g>
	</g>
	<path class="st1" d="M11.1,31.6c0,6,0.4,12.3,7.3,13.5c6.9,1.3,16.7-1.5,19.5-7.7c2.8-6.2,1-10.2-3.5-13.9
		c-4.4-3.7-9.1-4.1-12.6-4.1C18.3,19.4,11.1,19.7,11.1,31.6z"/>
	<path class="st1" d="M11.1,49.6c0,7,0.5,14.2,8.5,15.7c8,1.5,19.4-1.8,22.6-9c3.3-7.2,1.1-11.9-4.1-16.2
		c-5.2-4.3-10.6-4.8-14.7-4.8C19.4,35.4,11.1,35.8,11.1,49.6z"/>
</g>
</svg>
