<?xml version="1.0" encoding="utf-8"?>
<!-- Generator: Adobe Illustrator 21.1.0, SVG Export Plug-In . SVG Version: 6.00 Build 0)  -->
<svg version="1.1" id="Capa_1" xmlns="http://www.w3.org/2000/svg" xmlns:xlink="http://www.w3.org/1999/xlink" x="0px" y="0px"
	 viewBox="0 0 214 85" style="enable-background:new 0 0 214 85;" xml:space="preserve">
<style type="text/css">
	.st0{fill-rule:evenodd;clip-rule:evenodd;fill:#92979C;}
	.st1{opacity:0.7;fill:#A6ABB0;}
	.st2{fill-rule:evenodd;clip-rule:evenodd;fill:#A6ABB0;}
	.st3{fill:#A6ABB0;}
	.st4{fill:#92979C;}
	.st5{fill:#535353;}
	.st6{fill:#292626;}
	.st7{fill:#FEFEFE;}
	.st8{fill:#8F9396;}
	.st9{fill:#892655;}
	.st10{fill:#B9BDC0;}
	.st11{fill:#DEDEDE;}
	.st12{fill:#E2DEDB;}
	.st13{fill:#BBBCBE;}
	.st14{fill:#A4957B;}
	.st15{fill:none;}
</style>
<g>
	<path class="st4" d="M58.1,27.1c-0.2,0-3.8-0.3-3.8-0.3s-2.5-2.5-2.8-2.8c-0.1-0.1-0.2-0.2-0.4-0.2l-2,41.8l14.7-3.2
		c0,0-5.1-34.8-5.2-35C58.5,27.2,58.3,27.1,58.1,27.1L58.1,27.1z"/>
	<path class="st4" d="M80.8,45.2c-1.5-0.8-2.2-1.5-2.2-2.4c0-1.2,1-1.9,2.7-1.9c1.9,0,3.6,0.8,3.6,0.8l1.3-4.1c0,0-1.2-1-4.8-1
		c-5,0-8.5,2.9-8.5,6.9c0,2.3,1.6,4,3.8,5.3c1.8,1,2.4,1.7,2.4,2.8c0,1.1-0.9,2-2.5,2c-2.4,0-4.7-1.3-4.7-1.3l-1.4,4.1
		c0,0,2.1,1.4,5.7,1.4c5.2,0,8.9-2.5,8.9-7.1C84.9,48.3,83,46.5,80.8,45.2L80.8,45.2z"/>
	<path class="st4" d="M101.4,36.6c-2.5,0-4.6,1.2-6.1,3l-0.1,0l2.2-11.6h-5.8l-5.6,29.4h5.8l1.9-10.1c0.8-3.8,2.7-6.1,4.6-6.1
		c1.3,0,1.8,0.9,1.8,2.1c0,0.8-0.1,1.8-0.3,2.5l-2.2,11.5h5.8l2.3-11.9c0.3-1.3,0.4-2.8,0.4-3.8C106.1,38.6,104.4,36.6,101.4,36.6
		L101.4,36.6z"/>
	<path class="st4" d="M116.3,53.5c-2,0-2.8-1.7-2.8-3.8c0-3.3,1.7-8.7,4.8-8.7c2,0,2.7,1.8,2.7,3.5
		C121.1,48.1,119.4,53.5,116.3,53.5L116.3,53.5z M119.1,36.6c-6.9,0-11.5,6.3-11.5,13.2c0,4.5,2.8,8.1,7.9,8.1
		c6.8,0,11.4-6.1,11.4-13.2C127,40.6,124.5,36.6,119.1,36.6L119.1,36.6z"/>
	<path class="st4" d="M136.2,53.6c-1.5,0-2.4-0.8-2.4-0.8l1-5.4c0.7-3.6,2.5-6,4.6-6c1.8,0,2.3,1.6,2.3,3.2
		C141.6,48.3,139.4,53.6,136.2,53.6L136.2,53.6z M141.7,36.6c-3.9,0-6.1,3.4-6.1,3.4h-0.1l0.3-3.1h-5.1c-0.3,2.1-0.7,5.3-1.2,7.6
		l-4,21.1h5.8l1.6-8.5h0.1c0,0,1.2,0.8,3.4,0.8c6.8,0,11.2-6.9,11.2-13.9C147.6,40.1,145.9,36.6,141.7,36.6L141.7,36.6z"/>
	<path class="st4" d="M155.8,28.4c-1.8,0-3.3,1.5-3.3,3.3c0,1.7,1.1,2.9,2.7,2.9h0.1c1.8,0,3.3-1.2,3.4-3.3
		C158.7,29.6,157.6,28.4,155.8,28.4L155.8,28.4z"/>
	<polygon class="st4" points="147.8,57.5 153.5,57.5 157.5,37.1 151.7,37.1 147.8,57.5 	"/>
	<path class="st4" d="M172.1,37.1h-4l0.2-1c0.3-2,1.5-3.7,3.4-3.7c1,0,1.8,0.3,1.8,0.3l1.1-4.5c0,0-1-0.5-3.1-0.5
		c-2,0-4.1,0.6-5.6,1.9c-2,1.7-2.9,4.1-3.3,6.5l-0.2,1h-2.7l-0.8,4.3h2.7l-3,16.1h5.8l3-16.1h4L172.1,37.1L172.1,37.1z"/>
	<path class="st4" d="M186,37.1c0,0-3.6,9.1-5.2,14h-0.1c-0.1-1.6-1.4-14-1.4-14h-6.1l3.5,18.7c0.1,0.4,0,0.7-0.1,1
		c-0.7,1.3-1.8,2.5-3.1,3.5c-1.1,0.8-2.3,1.3-3.3,1.6l1.6,4.9c1.2-0.3,3.6-1.2,5.6-3.1c2.6-2.5,5.1-6.3,7.6-11.4l7.1-15.1H186
		L186,37.1z"/>
	<path class="st3" d="M51.2,23.8c-0.3-0.1-0.6,0-0.8,0c0,0-0.6,0.2-1.4,0.4c-0.8-2.4-2.3-4.7-5-4.7c-0.1,0-0.1,0-0.2,0
		c-0.7-1-1.7-1.4-2.5-1.4c-6.1,0-9,7.6-10,11.5c-2.4,0.7-4.1,1.3-4.3,1.3c-1.3,0.4-1.4,0.5-1.5,1.7C25.5,33.7,22,60.6,22,60.6
		l27,5.1l0.1,0L51.2,23.8z M43.6,25.7c0,0.1,0,0.2,0,0.3c-1.5,0.5-3.1,1-4.7,1.5c0.9-3.5,2.6-5.2,4.1-5.8
		C43.4,22.5,43.6,23.9,43.6,25.7z M41.2,19.9c0.3,0,0.5,0.1,0.8,0.3C40,21,37.9,23.4,37,28c-1.3,0.4-2.6,0.8-3.7,1.2
		C34.3,25.6,36.8,19.9,41.2,19.9z M42.3,40.5c0,0-1.6-0.8-3.5-0.8c-2.8,0-3,1.8-3,2.2c0,2.5,6.4,3.4,6.4,9.1c0,4.5-2.9,7.4-6.7,7.4
		c-4.6,0-7-2.9-7-2.9l1.2-4.1c0,0,2.4,2.1,4.5,2.1c1.3,0,1.9-1.1,1.9-1.8c0-3.2-5.2-3.3-5.2-8.6c0-4.4,3.2-8.7,9.6-8.7
		c2.5,0,3.7,0.7,3.7,0.7L42.3,40.5z M45.2,25.5c0-0.2,0-0.3,0-0.5c0-1.5-0.2-2.7-0.5-3.7c1.4,0.2,2.3,1.7,2.8,3.5
		C46.9,25,46.1,25.2,45.2,25.5z"/>
</g>
</svg>
