<?xml version="1.0" encoding="utf-8"?>
<!-- Generator: Adobe Illustrator 21.1.0, SVG Export Plug-In . SVG Version: 6.00 Build 0)  -->
<svg version="1.1" id="Capa_1" xmlns="http://www.w3.org/2000/svg" xmlns:xlink="http://www.w3.org/1999/xlink" x="0px" y="0px"
	 viewBox="0 0 214 85" style="enable-background:new 0 0 214 85;" xml:space="preserve">
<style type="text/css">
	.st0{fill:#A6ABB0;}
	.st1{fill:#92979C;}
	.st2{fill:#BABFC4;}
</style>
<g>
	<g>
		<g>
			<path class="st0" d="M34.8,47.3L28.3,36h-6.6c-2.6,0-4.2,2.8-2.9,5.1l9.8,17.1c1.3,2.2,4.5,2.2,5.8,0l9.8-17.1
				c0.1-0.2,0.2-0.3,0.2-0.5l-3.9,6.7C39.4,49.5,36.1,49.5,34.8,47.3z"/>
			<path class="st0" d="M47.6,25.2H27.9c-2.6,0-4.2,2.8-2.9,5.1l3.3,5.8h13.1c2.4,0,4,2.4,3.1,4.6l6-10.3
				C51.8,28,50.2,25.2,47.6,25.2z"/>
			<path class="st1" d="M41.4,36H28.3l6.5,11.3c1.3,2.2,4.5,2.2,5.8,0l3.9-6.7C45.4,38.4,43.8,36,41.4,36z"/>
		</g>
		<path class="st2" d="M21.7,36h6.6L25,30.2c-0.6-1.1-0.6-2.3-0.1-3.2l-6,10.5l0,0C19.5,36.6,20.5,36,21.7,36z"/>
	</g>
	<g>
		<path class="st1" d="M166.8,35.2c5.1,0,9.2,3.9,9.2,8.9c0,5-4.2,9.1-9.3,9c-5.2,0-9.2-4-9.2-9.1C157.6,39.1,161.6,35.2,166.8,35.2
			z M161.7,44.2c0,3,2.2,5.2,5.1,5.2c2.8,0,5-2.4,5-5.3c0-2.9-2.3-5.2-5.1-5.2C163.9,38.9,161.7,41.2,161.7,44.2z"/>
		<path class="st1" d="M81.2,44.1c0-5,4-8.9,9.2-8.9c5.2,0,9.4,4,9.3,9c0,4.9-4.2,9-9.2,9C85.3,53.2,81.2,49.2,81.2,44.1z
			 M85.4,44.1c0,3,2.2,5.3,5,5.3c2.8,0,5.1-2.3,5.1-5.2c0-2.9-2.2-5.3-5-5.3C87.7,38.9,85.4,41.2,85.4,44.1z"/>
		<path class="st1" d="M124,50.2c-1.8,2.6-4.2,3.4-7,2.7c-2.9-0.7-4.3-2.9-4.6-5.7c-0.4-3.4-0.2-6.8-0.2-10.2c0-1.7,1.4-1.4,2.5-1.4
			c1.1,0,1.9,0.3,1.9,1.5c0,2.5,0,5,0,7.4c0,0.6,0,1.2,0.1,1.8c0.2,1.3,0.7,2.5,2.1,2.9c1.4,0.4,2.7,0,3.7-1
			c1.3-1.2,1.6-2.8,1.6-4.5c0-2.1,0-4.3,0-6.5c0-1.5,0.4-1.8,2.3-1.7c1.6,0,2,0.3,2,1.8c0,4.4,0,8.9,0,13.3c0,1.7-0.2,2-1.8,2
			c-2.3,0-2.5-0.1-2.6-1.9C124.1,50.7,124,50.5,124,50.2z"/>
		<path class="st1" d="M184.1,38c1.4-2.3,3.5-2.9,6-2.7c2.4,0.2,3.9,1.5,4.8,3.7c0.5,1.1,0.7,2.3,0.7,3.5c0,2.8,0,5.6,0,8.4
			c0,1.5-0.4,1.8-2.4,1.8c-1.6,0-1.9-0.3-1.9-1.8c0-2.3,0-4.7,0-7c0-0.4,0-0.8,0-1.3c-0.1-2-1-3.3-2.3-3.6c-1.6-0.4-3.5,0.5-4.4,2.1
			c-0.6,1.1-0.8,2.4-0.8,3.7c0,2.1,0,4.2,0,6.3c0,1.5-0.3,1.6-2.4,1.7c-1.2,0-2-0.3-1.9-1.7c0-4.4,0-8.8,0-13.2
			c0-1.8,0.3-2.2,1.7-2.3c2.3-0.1,2.5,0.1,2.7,2.1c0,0.1,0,0.2-0.1,0.4C183.9,38,184,38,184.1,38z"/>
		<path class="st1" d="M139.1,35.2c1.7,0,3.2,0.4,4.8,0.9c1.1,0.4,1.3,1.1,1,2.1c-0.3,1-0.9,1.5-2,1.2c-1.4-0.5-2.8-0.9-4.2-0.8
			c-0.9,0.1-1.9,0.3-2.1,1.3c-0.2,1.2,0.6,1.7,1.5,2c1.2,0.4,2.5,0.8,3.7,1.2c2.7,0.9,4.1,2.5,4,4.9c-0.1,2.3-1.6,4-4.3,4.7
			c-3,0.8-5.8,0.1-8.6-1.1c-1.3-0.6-1-1.5-0.6-2.5c0.4-0.9,1.1-1.2,2-0.7c1.3,0.6,2.7,1,4.2,1.1c0.7,0.1,1.4,0,2.1-0.3
			c0.5-0.2,0.9-0.6,1-1.3c0-0.6-0.3-1.1-0.8-1.4c-0.7-0.4-1.5-0.6-2.2-0.8c-1.3-0.3-2.6-0.7-3.8-1.4c-3.3-2-3.3-6.3,0.1-8.2
			C136.2,35.4,137.6,35.1,139.1,35.2z"/>
		<path class="st1" d="M71.2,47.9c1.4-3.7,2.6-7.1,3.9-10.5c0.6-1.6,2.7-2.4,4.2-1.6c0.6,0.3,0.7,0.8,0.4,1.4
			c-1.9,4.8-3.8,9.6-5.8,14.4c-0.3,0.8-0.9,1.1-1.7,1.2c-3.1,0.2-3.2,0.1-4.4-2.7c-1.6-4.1-3.2-8.1-4.9-12.2
			c-0.7-1.7-0.4-2.2,1.4-2.2c2.2,0,2.3,0,3.1,2.2C68.7,41,69.9,44.3,71.2,47.9z"/>
		<path class="st1" d="M103.4,40.6c0-3.5,0-7,0-10.5c0-1.5,0.4-1.8,2.1-1.8c1.8,0,2.2,0.3,2.2,1.7c0,7,0,13.9,0,20.9
			c0,1.6-0.3,1.8-2.1,1.8c-1.9,0-2.2-0.2-2.2-1.7C103.4,47.5,103.4,44.1,103.4,40.6z"/>
		<path class="st1" d="M149.7,44.2c0-2.3,0-4.7,0-7c0-1.4,0.4-1.7,2.1-1.7c1.8,0,2.2,0.2,2.2,1.7c0,4.6,0,9.1,0,13.7
			c0,1.5-0.3,1.7-2.3,1.7c-1.7,0-2-0.2-2-1.7C149.7,48.7,149.7,46.5,149.7,44.2z"/>
		<path class="st1" d="M151.8,33.1c-1.6,0-2.7-1-2.7-2.5c0-1.5,1.1-2.5,2.7-2.5c1.6,0,2.7,1.1,2.7,2.6
			C154.6,32.1,153.5,33.1,151.8,33.1z"/>
	</g>
</g>
</svg>
