<?xml version="1.0" encoding="utf-8"?>
<!-- Generator: Adobe Illustrator 21.1.0, SVG Export Plug-In . SVG Version: 6.00 Build 0)  -->
<svg version="1.1" id="Capa_1" xmlns="http://www.w3.org/2000/svg" xmlns:xlink="http://www.w3.org/1999/xlink" x="0px" y="0px"
	 viewBox="0 0 214 85" style="enable-background:new 0 0 214 85;" xml:space="preserve">
<style type="text/css">
	.st0{fill-rule:evenodd;clip-rule:evenodd;fill:#92979C;}
	.st1{opacity:0.7;fill:#A6ABB0;}
	.st2{fill-rule:evenodd;clip-rule:evenodd;fill:#A6ABB0;}
	.st3{fill:#A6ABB0;}
	.st4{fill:#92979C;}
	.st5{fill:#535353;}
	.st6{fill:#292626;}
	.st7{fill:#FEFEFE;}
	.st8{fill:#8F9396;}
	.st9{fill:#892655;}
	.st10{fill:#B9BDC0;}
	.st11{fill:#DEDEDE;}
	.st12{fill:#E2DEDB;}
	.st13{fill:#BBBCBE;}
	.st14{fill:#A4957B;}
	.st15{fill:none;}
</style>
<g>
	<g>
		<path class="st2" d="M46.1,34c1.4-0.5,2.5-1,3.8-1.2c0.7-0.1,1.8,0.1,2.2,0.6c0.4,0.5,0.5,1.7,0.1,2.3c-1.1,1.8-2.4,3.4-3.6,5.2
			c-0.4,0.6-0.6,1.3-0.6,2c0.4,3.3,0.9,6.6,1.4,9.9c0.1,0.5,0.6,1,1,1.3c2.4,1.3,4.9,2.4,7.3,3.7c0.7,0.4,1.4,1,2,1.6
			c1.1,1.2,0.7,2.7-0.9,3c-2,0.3-4,0.2-6,0.2c-1,0-2-0.3-3-0.4c-0.2,1.1-0.3,2.2-0.8,3.1c-0.3,0.6-1,1.4-1.6,1.5
			c-0.6,0.1-1.6-0.4-2-1c-0.9-1.3-1.4-2.8-2.1-4.1c-0.3-0.5-0.9-1.1-1.4-1.3c-3.1-1-6.2-1.9-9.3-2.9c-0.9-0.3-1.4-0.2-2.1,0.4
			c-3.3,2.5-6.6,5-10,7.4c-1,0.7-2.1,1.2-3.3,1.5c-1.9,0.5-3.1-0.8-2.4-2.6c0.6-1.6,1.5-3.2,2.5-4.7c1.5-2.1,3.2-4.1,4.9-6.2
			c-0.6-0.3-1.3-0.6-1.9-1c-2-1.3-4-2.5-5.9-3.9c-0.8-0.6-1.7-1.7-1-2.6c0.5-0.7,1.7-1.2,2.5-1.1c3.9,0.5,7.7,1.2,11.5,1.9
			c0.9,0.2,1.6,0.1,2.4-0.5c2.3-2,4.6-3.9,7-5.7c0.6-0.5,0.8-0.9,0.7-1.8c-0.9-5.4-2-10.7-1.8-16.2c0-0.7,0.1-1.5,0.3-2.2
			c0.5-1.7,2.1-2.2,3.2-0.8c1,1.2,2,2.6,2.6,4c1.4,3.3,2.5,6.7,3.7,10C45.9,33.3,46,33.6,46.1,34z M27.7,52.3c0,0.2,0,0.4,0.1,0.6
			c6.5,2,13,4,19.5,6c0.2-0.1,0.3-0.2,0.5-0.4c-1.2-6.6-2.3-13.3-3.5-19.9c-0.2-0.1-0.4-0.2-0.5-0.3C38.3,43,33,47.6,27.7,52.3z
			 M38.5,38.8c1.6-1,3-1.9,4.4-2.9c0.2-0.2,0.4-0.8,0.3-1.1c-1.2-4.1-2.5-8.3-3.8-12.4c-0.2-0.7-0.8-1.4-1.1-2.1
			c-0.1,0-0.3,0.1-0.4,0.1C36.7,26.7,37.6,32.7,38.5,38.8z M30.7,56.7c-1.7-0.7-3.1-1.3-4.5-1.8c-0.4-0.1-1,0.1-1.3,0.3
			c-1.5,1.4-2.9,2.9-4.3,4.5c-1.3,1.5-2.5,3.2-3.8,4.8c0.1,0.1,0.3,0.3,0.4,0.4C22.2,63.1,26.3,59.9,30.7,56.7z M28.1,47.4
			c-4.6-1.5-10.9-2-12.6-1c2.6,2.1,5.5,3.3,8.5,4.5c0.2,0.1,0.7-0.1,0.9-0.3C26,49.6,27,48.5,28.1,47.4z M58.3,60.8
			c0.1-0.2,0.1-0.4,0.2-0.6c-2.5-2.4-5.5-3.9-8.8-5.5c0.1,1.5,0.1,2.7,0.2,3.9c0,0.3,0.4,0.8,0.6,0.9C53.2,60,55.7,60.4,58.3,60.8z
			 M47.7,39.9c1-1.7,2-3.3,3.1-5.2C46.9,35.8,46.3,36.9,47.7,39.9z M47.1,64.8c1.1-2.9,0.6-3.7-2.2-3.6
			C45.6,62.3,46.2,63.4,47.1,64.8z"/>
		<path class="st0" d="M157.6,52.8c-1,0-1.8,0-2.8,0c0-1.9,0-3.8,0-5.7c0-0.7,0-1.3,0-2c-0.1-1.1-0.6-1.8-1.7-1.8
			c-1.1,0-1.9,0.6-2,1.7c-0.1,1.8-0.1,3.6-0.1,5.4c0,0.8,0,1.6,0,2.4c-1,0-1.8,0-2.8,0c0-1.4,0-2.8,0-4.2c0-1.2,0-2.3-0.1-3.5
			c-0.1-1.2-0.7-1.9-1.9-1.8c-1.1,0.1-1.9,0.6-1.9,2c0.1,2.5,0,5,0,7.5c-1,0-1.9,0-2.8,0c0-3.8,0-7.6,0-11.4c1.1-0.1,2.2-0.6,2.7,1
			c2.6-1.9,3.9-1.8,5.7,0.2c1.2-0.5,2.3-1.2,3.4-1.5c2.3-0.4,4.2,1,4.3,3.3C157.7,47.2,157.6,49.9,157.6,52.8z"/>
		<path class="st0" d="M125.7,52.8c-1,0-1.8,0-2.7,0c0-3.8,0-7.6,0-11.5c1,0,2.1-0.6,2.6,0.9c2.9-1.8,4.2-1.7,5.9,0.6
			c1-1.4,2.4-2,4.1-1.9c1.9,0.2,3.2,1.2,3.3,3c0.2,2.9,0,5.8,0,8.7c-0.9,0-1.7,0-2.7,0c0-1.5,0-3,0-4.5c0-0.8,0-1.5,0-2.3
			c0-1.9-0.6-2.8-1.9-2.7c-1.3,0-2,1-2,2.8c0,1.7,0,3.5,0,5.2c0,0.5,0,0.9,0,1.5c-1,0-1.8,0-2.8,0c0-1.4,0-2.8,0-4.1
			c0-1.2,0-2.4,0-3.5c-0.1-1.1-0.6-1.9-1.9-1.8c-1.2,0-2,0.9-2,2C125.7,47.8,125.7,50.2,125.7,52.8z"/>
		<path class="st0" d="M115.5,41c3.4,0,5.7,2.4,5.7,6c0,3.7-2.3,6.1-5.8,6c-3.5,0-5.8-2.5-5.7-6.1C109.7,43.3,112,41,115.5,41z
			 M112.7,46.9c0,2.5,0.9,3.8,2.7,3.9c1.7,0.1,2.7-1.1,2.9-3.3c0.2-2.5-0.7-4.1-2.4-4.2C113.7,43.1,112.7,44.3,112.7,46.9z"/>
		<path class="st0" d="M193,47.5c-0.4,2.9,2.5,4,4.9,2.8c1.4-0.7,1.5-0.7,2.4,0.7c0,0.1,0,0.2,0,0.3c-1.6,1.8-5.1,2.3-7.4,1.1
			c-2.3-1.2-3.4-4.1-2.7-7.1c0.5-2.5,2.5-4.1,5.1-4.2c3.1-0.1,5.4,2.1,5.3,5.2c0,0.9-0.4,1.2-1.3,1.2C197.2,47.4,195,47.5,193,47.5z
			 M197.8,45.6c-0.1-1.7-0.8-2.4-2.2-2.4c-1.6-0.1-2.4,0.7-2.7,2.4C194.6,45.6,196.2,45.6,197.8,45.6z"/>
		<path class="st0" d="M162.2,47.5c0.1,2.9,2.3,4.2,4.9,2.8c1.3-0.7,2-0.4,2.5,0.8c-1.5,1.8-4.5,2.5-6.9,1.6
			c-2.3-0.9-3.7-3.3-3.5-6.2c0.2-3.2,2.3-5.3,5.4-5.4c3.2-0.1,5.3,2.1,5.2,5.3c0,0.9-0.4,1.2-1.2,1.1c-1.1,0-2.2,0-3.2,0
			C164.3,47.5,163.3,47.5,162.2,47.5z M167.2,45.6c-0.3-1.9-1-2.6-2.6-2.5c-1.4,0.1-2.2,0.9-2.3,2.5
			C163.9,45.6,165.5,45.6,167.2,45.6z"/>
		<path class="st0" d="M109,42.7c-0.5,1.2-1.1,1.6-2.4,0.9c-1.8-1-3.7-0.1-4.1,2c-0.2,1-0.2,2.1,0.1,3c0.5,2.1,2.4,2.9,4.1,1.7
			c1.2-0.8,1.9-0.5,2.4,0.6c-1.4,2.1-5.2,2.7-7.4,1.1c-2.6-1.9-3.1-6.7-0.9-9.3C102.7,40.5,106.6,40.4,109,42.7z"/>
		<path class="st0" d="M189.2,42.6c-0.5,1.4-1.3,1.6-2.5,0.9c-1.8-0.9-3.6,0-4,2c-0.2,1-0.2,2.2,0.1,3.2c0.5,2,2.3,2.7,4.1,1.7
			c1.4-0.8,1.4-0.8,2.4,0.6c-0.8,2.2-5.6,2.4-7.3,1.2c-2.6-1.9-3.2-6.6-1.1-9.3C182.8,40.5,186.7,40.4,189.2,42.6z"/>
		<path class="st0" d="M171.7,41.3c1.3-0.3,2.5-0.4,2.6,1.1c1.1-0.5,2.2-1.1,3.3-1.4c0.5-0.2,1.5-0.1,1.3,0.9
			c-0.2,0.8,0.3,2-1.4,1.9c-2.2-0.2-3.1,0.8-3.1,3c0,2,0,3.9,0,6c-0.9,0-1.8,0-2.7,0C171.7,49,171.7,45.2,171.7,41.3z"/>
		<path class="st0" d="M78.6,47.3c-0.1,4-2.5,6.1-6.2,5.6c-0.5-0.1-1.1-0.3-1.6-0.5c-2.3-1.3-3.3-5.1-2-8.1c1-2.4,3.7-3.5,6.4-2.6
			C77.3,42.3,78.6,44.5,78.6,47.3z M69.5,47.1c0,2.8,1.1,4.5,3.1,4.9c2.3,0.4,4-0.7,4.6-2.9c0.8-3-0.3-5.9-2.4-6.5
			c-0.1,0-0.3-0.1-0.4-0.1C71.4,41.8,69.5,43.6,69.5,47.1z"/>
		<path class="st0" d="M98,46.8c-2.7,0-5.4,0-8.1,0c-0.2,1.9,0.2,3.4,1.6,4.5c1.6,1.1,3.3,0.9,4.9,0.1c0.4-0.2,0.8-0.3,1.3-0.3
			c-2,2.9-7,2.3-8.5-0.9c-0.8-1.8-0.9-3.7-0.2-5.6c0.9-2.4,3.2-3.6,5.8-3C97,42,98.2,43.9,98,46.8z M96.9,45.9
			c0.1-2.3-1.1-3.6-3.2-3.7c-2.2,0-3.7,1.4-3.8,3.7C92.3,45.9,94.6,45.9,96.9,45.9z"/>
		<path class="st0" d="M66.9,43.1c-0.4,0-0.8,0-1.1-0.1c-3.2-1.5-5.9,0-6.1,3.6c0,0.9,0,1.8,0.2,2.6c0.7,2.7,3.4,3.7,5.8,2.3
			c0.4-0.2,0.8-0.4,1.5-0.7c-0.9,1.9-3.4,2.7-5.5,1.9c-2.1-0.8-2.9-2.5-3.1-4.6c-0.2-2.5,0.2-4.8,2.6-6.1c2-1,4-0.8,5.8,0.6
			C66.9,42.7,66.9,42.9,66.9,43.1z"/>
		<path class="st0" d="M80.9,41.6c1,0.2,1,0.2,1.2,2.1c0.4-0.5,0.6-0.9,0.9-1.2c1-1.1,2.6-1.5,3.8-1c0.2,0.1,0.4,0.4,0.5,0.7
			c-0.2,0.1-0.5,0.4-0.7,0.4c-3.4-0.1-4.6,1-4.6,4.5c0,1.7,0,3.5,0,5.2c0,0.1,0,0.2-0.2,0.7c-0.4-0.5-0.9-0.8-0.9-1.1
			C80.9,48.6,80.9,45.2,80.9,41.6z"/>
	</g>
</g>
</svg>
