<?xml version="1.0" encoding="utf-8"?>
<!-- Generator: Adobe Illustrator 21.1.0, SVG Export Plug-In . SVG Version: 6.00 Build 0)  -->
<svg version="1.1" id="Capa_1" xmlns="http://www.w3.org/2000/svg" xmlns:xlink="http://www.w3.org/1999/xlink" x="0px" y="0px"
	 viewBox="0 0 214 85" style="enable-background:new 0 0 214 85;" xml:space="preserve">
<style type="text/css">
	.st0{fill-rule:evenodd;clip-rule:evenodd;fill:#92979C;}
	.st1{opacity:0.7;fill:#A6ABB0;}
	.st2{fill-rule:evenodd;clip-rule:evenodd;fill:#A6ABB0;}
	.st3{fill:#A6ABB0;}
	.st4{fill:#92979C;}
	.st5{fill:#535353;}
	.st6{fill:#292626;}
	.st7{fill:#FEFEFE;}
	.st8{fill:#8F9396;}
	.st9{fill:#892655;}
	.st10{fill:#B9BDC0;}
	.st11{fill:#DEDEDE;}
	.st12{fill:#E2DEDB;}
	.st13{fill:#BBBCBE;}
	.st14{fill:#A4957B;}
	.st15{fill:none;}
</style>
<g>
	<g>
		<path class="st0" d="M108.2,45.9c0.4,0.5,0.7,0.8,1.1,1.2c1.1,1.1,2.1,2.4,3.6,3.3c0.7,0.4,1.5,0.7,2.4,0.7c1.6,0,2.1-0.8,2.2-2.1
			c0.1-2.7,0.1-5.4,0-8.1c0-1.4-0.5-2-2.2-2.1c-0.2,0-0.3,0-0.5,0c-0.2-0.8-0.2-0.8,0.6-0.8c2.2,0,4.5,0,6.7,0
			c1.6,0,3.3,0.2,4.8,0.9c2.3,1,3.6,2.7,3.9,5.3c0.2,1.7-0.1,3.3-1,4.7c-1,1.6-2.6,2.5-4.4,2.8c-1.1,0.2-2.3,0.3-3.4,0.4
			c-3.7,0-7.4,0-11.1,0c-0.6,0-1-0.1-1.3-0.7c-0.6-0.9-1.4-1.7-2.1-2.6c-0.6-0.7-1.1-1.4-1.7-2.2c-0.3-0.3-0.5-0.5-0.9-0.4
			c0,1.1-0.1,2.2,0,3.3c0.1,1.2,0.5,1.6,2.1,1.7c0.2,0,0.4,0.2,0.5,0.3c0.1,0.3,0,0.5-0.4,0.5c-2.5,0-5,0-7.5,0
			c-0.3,0-0.5-0.1-0.5-0.4c0-0.4,0.2-0.5,0.5-0.4c0.7,0,1.3,0,1.7-0.6c0.3-0.5,0.5-1,0.5-1.6c0.1-2.7,0.1-5.3,0-8
			c0-1.5-0.5-2-2.2-2.1c-0.3,0-0.6,0-0.5-0.5c0-0.2,0.3-0.4,0.4-0.4c2.4,0,4.9-0.1,7.3,0c1.4,0,2.8,0.3,4,1.2c1.2,0.9,1.7,2.7,1.2,4
			c-0.5,1.4-1.6,2.2-3,2.6C108.8,45.8,108.6,45.8,108.2,45.9z M120.3,39.2c0,0.3,0,0.5,0,0.7c0,2.4,0,4.8,0,7.2
			c0,0.8,0.1,1.6,0.1,2.4c0,0.5,0.3,0.9,0.8,1c0.8,0.1,1.6,0.1,2.4,0c1.7-0.3,2.9-1.2,3.5-2.8c0.6-1.8,0.6-3.5,0.1-5.3
			c-0.4-1.3-1.3-2.3-2.6-2.8C123.2,39,121.8,39.3,120.3,39.2z M104.8,39.2c0,1.9,0,3.7,0,5.5c0.6,0,1.1,0,1.7,0
			c1.1-0.1,2-0.5,2.4-1.5c0.6-1.4,0.2-3.6-1.8-4C106.3,39.1,105.5,39.2,104.8,39.2z"/>
		<path class="st0" d="M153.6,46.2c0.1,1.1,0,2.2,0.2,3.2c0.1,1.1,0.8,1.6,1.9,1.6c0.2,0,0.4,0,0.7,0c0,0.3,0,0.6,0,0.9
			c-2.8,0-5.5,0-8.3,0c0-0.3,0-0.5,0-0.8c0.4,0,0.7,0,1-0.1c1.1-0.2,1.5-0.8,1.5-1.8c0-2.8,0-5.6,0-8.4c0-1.2-0.7-1.8-2-1.9
			c-0.2,0-0.4,0-0.6,0c0-0.3,0-0.6,0-0.9c0.2,0,0.4,0,0.6,0c2.3,0,4.6-0.1,6.8,0c1.5,0,3,0.3,4.3,1.3c1.2,0.9,1.7,2.9,1.1,4.3
			c-0.7,1.4-1.9,2.1-3.3,2.4c-0.1,0-0.1,0-0.2,0c0,0,0,0,0,0c0,0,0,0.1,0,0.1c1.4,1.4,2.8,2.9,4.3,4.1c0.7,0.6,1.7,1,2.8,0.7
			c0.7-0.2,1.1-0.6,1.2-1.3c0.1-0.4,0.1-0.9,0.2-1.3c0-2.4,0-4.8,0-7.2c0-0.5-0.1-1-0.3-1.4c-0.3-0.8-1-0.9-1.7-1
			c-0.2,0-0.4,0-0.7,0c0-0.3,0-0.6,0-0.9c4.1,0,8.2,0,12.4,0c0.1,1.3,0.2,2.6,0.3,3.9c-0.3,0-0.5,0-0.7,0c-0.1-0.4-0.3-0.8-0.4-1.2
			c-0.3-0.9-0.9-1.3-1.7-1.3c-1.4-0.1-2.8,0-4.2,0c0,1.4,0,2.9,0,4.5c0.8-0.1,1.6-0.1,2.4-0.2c0.7-0.1,1-0.6,1-1.5
			c0-0.2,0-0.4,0-0.7c0.3,0,0.6,0,0.9,0c0,2.1,0,4.1,0,6.2c-0.3,0-0.5,0-0.8,0c-0.1-0.4-0.1-0.8-0.2-1.2c-0.1-0.7-0.6-1-1.2-1.1
			c-0.7-0.1-1.4-0.1-2.2-0.2c0,0.9,0,1.9,0,2.8c0,0.2,0.1,0.4,0.1,0.6c0,1.3,0.4,1.9,1.8,2c1.2,0.1,2.3-0.1,3.5-0.2
			c0.8-0.1,1.2-0.6,1.4-1.4c0.1-0.3,0.2-0.6,0.3-1c0.2,0,0.4,0,0.7,0c-0.1,1.3-0.2,2.6-0.3,3.9c-0.2,0-0.4,0-0.6,0
			c-5.4,0-10.8,0-16.2,0c-0.8,0-1-0.6-1.4-1c-1.2-1.4-2.3-2.9-3.5-4.4c-0.2-0.2-0.5-0.3-0.8-0.5C153.7,46.1,153.6,46.1,153.6,46.2z
			 M153.6,44.7c0.5,0,0.9,0,1.3,0c1.9,0,3.1-1.1,3-3.1c-0.1-0.9-0.8-2-1.6-2.2c-0.9-0.2-1.8-0.2-2.7-0.2
			C153.6,41.1,153.6,42.8,153.6,44.7z"/>
		<path class="st0" d="M70.2,39.8c-0.3,0.8-0.6,1.7-0.9,2.5c-0.8,2.5-1.7,5-2.5,7.5c-0.2,0.7-0.5,1.5-0.7,2.2
			c-0.2,0.5-0.2,0.5-0.8,0.5c-0.9-2.7-1.8-5.5-2.7-8.2c-0.8-2.4-1.5-4.8-2.4-7.2c-0.4-1.1-0.9-2.1-2.2-2.5c-0.5-0.1-1-0.2-1.5-0.3
			c0-0.2,0-0.5,0-0.8c0.2,0,0.4,0,0.6,0c2.7,0,5.3,0,8,0c0.3,0,0.6-0.1,0.6,0.4c0,0.5-0.3,0.4-0.6,0.5c-0.4,0-0.7,0-1,0.1
			c-0.8,0.2-1.3,1-1,1.9c1,3.1,2,6.2,3,9.3c0,0,0.1,0,0.2,0.1c0.4-1.2,0.8-2.3,1.1-3.4c0.9-2.8,1.9-5.6,2.8-8.4
			c0.1-0.3,0.2-0.5,0.6-0.5c0.4,0,0.5,0.2,0.6,0.5c1.2,3.5,2.3,7,3.5,10.5c0.2,0.5,0.3,1,0.5,1.4c0.7-2,1.4-4.1,2.1-6.1
			c0.4-1.2,0.8-2.5,1.1-3.7c0.2-0.6-0.1-1.2-0.8-1.4c-0.5-0.2-1.1-0.2-1.7-0.4c0-0.2,0-0.4,0-0.7c0.2,0,0.3,0,0.5,0
			c2.3,0,4.5,0,6.8,0c0.3,0,0.6-0.1,0.6,0.4c0,0.5-0.3,0.4-0.6,0.5c-1.6,0.1-2.5,0.5-3.2,2.3c-1.8,5-3.4,10.1-5.2,15.1
			c-0.1,0.2-0.3,0.4-0.5,0.6c-0.2-0.2-0.4-0.4-0.5-0.6c-0.8-2.3-1.5-4.7-2.3-7c-0.6-1.7-1.1-3.5-1.7-5.2
			C70.4,39.8,70.3,39.8,70.2,39.8z"/>
		<path class="st2" d="M54.9,41.6c0,12.9-9.7,22.7-22,22.5c-6.2-0.1-11.5-2.5-15.7-7.1c-4.2-4.6-6-10.1-5.5-16.2
			c0.7-10.6,9.4-19.1,19.7-19.9c6.2-0.5,11.6,1.3,16.2,5.4C52.5,30.6,54.8,36.1,54.9,41.6z M33.2,63c11.5,0.1,20.6-9.3,20.6-20.6
			c0-5.4-1.9-10.1-5.6-14c-3.7-3.9-8.3-6.1-13.7-6.5c-12.4-0.8-22.2,9.5-21.9,21.2C13.1,53.7,21.9,63.1,33.2,63z"/>
		<path class="st0" d="M131.6,34.6c0-0.3,0-0.6,0-0.9c0.2,0,0.5,0,0.7,0c2.9,0,5.7-0.1,8.6,0c1.9,0,3.6,0.5,5,1.9
			c0.8,0.8,1.1,1.8,1.2,2.9c0.3,3.5-2.6,5.2-5.1,5.5c-1.3,0.1-2.6,0.1-3.9,0.2c0,1.4,0,2.7,0,4.1c0,0.4,0.1,0.9,0.2,1.3
			c0.2,0.8,0.8,1.2,1.6,1.3c0.4,0.1,0.9,0.1,1.4,0.2c0,0.3,0,0.5,0,0.8c-3.2,0-6.4,0-9.6,0c0-0.3,0-0.5,0-0.8c0.3-0.1,0.7-0.1,1-0.2
			c1.5-0.2,2-0.7,2.1-2.4c0.2-3.4,0.1-6.8,0.1-10.3c0-0.7-0.1-1.4-0.3-2c-0.2-1-1.1-1.6-2.3-1.6C132,34.6,131.8,34.6,131.6,34.6z
			 M137.9,42.5c0.8,0,1.6,0,2.3,0c1.7,0,2.8-0.8,3.2-2.4c0.5-1.7-0.2-4-1.9-4.5c-1.1-0.3-2.4-0.3-3.6-0.4
			C137.9,37.7,137.9,40,137.9,42.5z"/>
		<path class="st0" d="M90.7,52.4c-4.1-0.1-6.7-1.5-8.3-4.4c-1.5-2.7-0.9-5.8,1.2-8c2.1-2.1,4.6-2.9,7.5-2.6
			c2.7,0.3,4.9,1.5,6.3,3.9c1.5,2.5,1.2,5.6-0.4,7.9C95.6,50.9,92.6,52.6,90.7,52.4z M90.2,38.7c-2.1,0-3.6,0.8-4.5,2.4
			c-1,1.9-1.2,3.9-0.6,6c0.6,2,1.8,3.5,3.9,3.8c2.1,0.4,3.8-0.2,4.9-1.9c1.3-2,1.5-4.2,0.9-6.5C94.3,40.4,92.3,38.5,90.2,38.7z"/>
		<path class="st0" d="M186.8,38.4c0.4-0.3,0.3-1.4,1.4-0.9c0,1.6,0,3.2,0,4.8c-0.3,0-0.6,0-0.9,0c-0.2-0.6-0.4-1.1-0.6-1.7
			c-0.7-1.5-2.7-2.3-4.1-1.6c-0.6,0.3-1,0.7-1.1,1.3c-0.1,0.7,0.2,1.3,0.8,1.6c1.5,0.8,3,1.5,4.4,2.3c1,0.5,1.8,1.3,2.4,2.3
			c0.6,1.1,0.3,3.3-0.7,4.4c-1.8,1.9-5.2,2.2-7.7,0.4c0,0-0.1-0.1-0.2-0.1c-0.1,0.2-0.3,0.5-0.4,0.7c-0.3,0.7-0.3,0.7-1.1,0.6
			c0-1.9,0-3.7,0-5.6c0.7-0.2,0.8-0.2,1,0.5c0.6,2.4,2.2,3.6,4.5,3.7c1.4,0.1,2.8-0.8,2.4-2.4c-0.1-0.5-0.5-1-1-1.3
			c-1.1-0.7-2.3-1.3-3.5-1.8c-1.1-0.5-2.1-1.1-2.8-2.1c-1.7-2.5-0.2-5.3,2.6-5.9C183.9,37.1,185.4,37.4,186.8,38.4z"/>
		<path class="st0" d="M199.8,38.4c0.2-0.4,0.3-0.7,0.5-1.1c0.2,0,0.5,0,0.8,0c0,1.6,0,3.2,0,4.8c-0.9,0.2-0.9,0.2-1.1-0.8
			c-0.4-1.7-1.9-2.8-3.5-2.7c-1,0.1-2.2,0.8-2,1.9c0.1,0.7,0.5,1,1,1.3c1.3,0.7,2.6,1.4,4,2c1.6,0.8,3,2,3,4c0,2.3-1.6,3.8-3.7,4.3
			c-1.3,0.3-2.6,0.3-3.9-0.3c-0.5-0.2-0.9-0.5-1.5-0.8c-0.2,0.4-0.4,0.8-0.6,1.3c-0.2,0-0.5,0-0.8,0c0-1.9,0-3.8,0-5.7
			c0.3,0,0.5,0,0.7,0c0.3,0.8,0.5,1.5,0.9,2.2c0.7,1.1,1.7,1.8,3.1,2.1c0.8,0.1,1.6,0,2.3-0.4c1-0.5,1.2-1.9,0.4-2.7
			c-0.5-0.5-1.1-1-1.7-1.3c-1.2-0.7-2.5-1.2-3.7-1.9c-1.5-0.9-2.2-2.3-2.1-4c0.1-1.1,1.2-2.5,2.5-2.9
			C196.3,37,198.1,37.3,199.8,38.4z"/>
		<path class="st2" d="M28.7,54.1c-2.3-6.8-4.5-13.5-6.8-20.2c0.5-0.1,1-0.1,1.5-0.2c0.3,0,0.6-0.1,0.9-0.1c0.4-0.1,0.5-0.5,0.4-0.8
			c-0.1-0.2-0.4-0.5-0.6-0.5c-1.4,0-2.8,0.1-4.2,0.2c-0.6,0-1.3,0-1.9-0.1c3-4.5,7.1-7.3,12.4-8.1c5.9-1,11,0.7,15.5,4.5
			c-0.7,0.3-1.4,0.4-1.9,0.8c-1.4,1.1-1.8,2.7-0.8,4.6c0.5,0.9,1,1.8,1.6,2.8c0.7,1.3,1.2,2.6,1.2,4.1c0.1,2.3-0.6,4.4-1.3,6.5
			c-0.6,1.9-1.1,3.7-1.7,5.6c-0.1,0.2-0.2,0.4-0.3,0.7c-2.3-6.7-4.5-13.3-6.7-20c0.5-0.1,1-0.1,1.4-0.2c0.2,0,0.4,0,0.6-0.1
			c0.5-0.1,0.8-0.3,0.7-0.8c-0.1-0.6-0.5-0.6-0.9-0.6c-1.6,0.1-3.1,0.2-4.7,0.2c-1.6,0-3.2-0.1-4.8-0.2c-0.5,0-0.8,0.2-0.9,0.6
			c0,0.4,0.3,0.7,0.7,0.8c0.5,0.1,1,0.1,1.5,0.2c0.2,0,0.5,0.2,0.6,0.4c0.9,2.5,1.8,4.9,2.7,7.4c0,0.1,0,0.3,0,0.4
			C31.4,45.9,30.1,49.9,28.7,54.1z"/>
		<path class="st2" d="M39.5,60c-3.8,1.3-7.6,1.4-11.5,0.3c1.9-5.4,3.7-10.8,5.5-16.1c0,0,0.1,0,0.1,0C35.6,49.4,37.5,54.7,39.5,60z
			"/>
		<path class="st2" d="M25.2,59.2c-8.5-3.7-13.3-14.8-8.9-24.3C19.3,43,22.3,51.1,25.2,59.2z"/>
		<path class="st2" d="M49.5,33.7c5.2,9.4,1.2,20.4-7,24.9c0.3-0.8,0.5-1.5,0.8-2.2c1-2.9,2-5.9,3-8.8c0.8-2.4,1.7-4.8,2.5-7.2
			c0.7-1.9,0.9-3.8,0.8-5.8C49.6,34.3,49.5,34,49.5,33.7z"/>
	</g>
</g>
</svg>
