<?xml version="1.0" encoding="utf-8"?>
<!-- Generator: Adobe Illustrator 21.1.0, SVG Export Plug-In . SVG Version: 6.00 Build 0)  -->
<svg version="1.1" id="Capa_1" xmlns="http://www.w3.org/2000/svg" xmlns:xlink="http://www.w3.org/1999/xlink" x="0px" y="0px"
	 viewBox="0 0 214 85" style="enable-background:new 0 0 214 85;" xml:space="preserve">
<style type="text/css">
	.st0{fill-rule:evenodd;clip-rule:evenodd;fill:#92979C;}
	.st1{opacity:0.7;fill:#A6ABB0;}
	.st2{fill-rule:evenodd;clip-rule:evenodd;fill:#A6ABB0;}
	.st3{fill:#A6ABB0;}
	.st4{fill:#92979C;}
	.st5{fill:#535353;}
	.st6{fill:#292626;}
	.st7{fill:#FEFEFE;}
	.st8{fill:#8F9396;}
	.st9{fill:#892655;}
	.st10{fill:#B9BDC0;}
	.st11{fill:#DEDEDE;}
	.st12{fill:#E2DEDB;}
	.st13{fill:#BBBCBE;}
	.st14{fill:#A4957B;}
	.st15{fill:none;}
</style>
<g>
	<g>
		<g id="EbUka2_3_">
			<g>
				<path class="st5" d="M29.7,56.5c0-0.3-0.1-0.7-0.1-1c0-0.3-0.1-0.4-0.4-0.4c-0.3,0-0.3-0.1-0.4-0.3c-0.1-0.3-0.2-0.6-0.3-1
					c-0.1-0.3-0.2-0.6-0.3-0.9c0.1-0.1,0.2-0.2,0.4-0.2c0.3,0,0.5-0.1,0.7-0.2c0.4-0.2,0.7-0.4,1.1-0.6c0.6-0.3,1.2-0.7,1.8-1.1
					c0.4-0.3,0.7-0.5,1.1-0.8c0.4-0.3,0.7-0.6,1.1-0.9c0.1-0.1,0.2-0.2,0.3-0.2c-0.6,0.6-1.3,1.2-2,1.7c-0.9,0.7-1.9,1.3-3,1.8
					c-0.1,0-0.1,0.1-0.2,0.1c0.3,0.2,0.6,0.4,0.9,0.6c0.9,0.6,1.6,1.3,2.3,2.1c0,0,0.1,0,0.1,0.1c-0.3,0.3-0.6,0.6-1,0.8
					c-0.5,0.4-0.9,0.7-1.4,1c-0.1,0-0.1,0.1-0.2,0.1C30.2,56.9,30,56.7,29.7,56.5z"/>
				<path class="st5" d="M15.6,52.6c-0.1,0.4-0.2,0.8-0.4,1.2c-0.1,0.4-0.2,0.8-0.4,1.2c0,0.1-0.1,0.2-0.3,0.2
					c-0.3,0-0.4,0.1-0.5,0.5c0,0.3,0,0.6-0.1,0.9c-0.1,0-0.2,0.1-0.2,0.2c-0.2,0.2-0.4,0.3-0.5,0.5c-0.9-0.5-1.7-1.1-2.5-1.8
					c0,0-0.1-0.1-0.1-0.1c0.4-0.3,0.7-0.7,1.1-1.1c0.8-0.8,1.7-1.4,2.7-2c0.1,0,0.1-0.1,0.2-0.1c0.1,0,0.1,0,0.2,0.1
					C15.2,52.3,15.4,52.4,15.6,52.6z"/>
				<path class="st6" d="M29.7,56.5c0.3,0.2,0.5,0.4,0.7,0.6c-0.1,0.2-0.3,0.2-0.5,0.3C29.8,57.1,29.7,56.8,29.7,56.5z"/>
				<path class="st6" d="M13.5,57.2c0.1-0.2,0.3-0.4,0.5-0.5c0.1-0.1,0.1-0.1,0.2-0.2c-0.1,0.3-0.1,0.6-0.2,1
					C13.8,57.4,13.6,57.3,13.5,57.2z"/>
				<path class="st7" d="M15.6,52.6c-0.2-0.1-0.4-0.3-0.6-0.4c-0.1,0-0.1-0.1-0.2-0.1c0-0.1,0-0.1-0.1-0.2c-1-0.7-1.8-1.6-2.5-2.6
					c-0.6-0.9-1.1-1.8-1.4-2.8c-0.1-0.1-0.1-0.3-0.1-0.4c0.2-1,0.5-1.9,1-2.8c0.1-0.2,0.2-0.5,0.4-0.7c0.1,0,0.1,0,0.2,0
					c1.6,0,3.3,0,4.9,0c0,0,0,0,0.1,0c0.9,0.2,1.8,0.5,2.8,0.7c0.5,0.1,1,0.3,1.5,0.4c0.1,0.1,0.2,0.1,0.2,0.2
					c0.4,0.3,0.8,0.4,1.3,0.3c0.8-0.2,1.3-0.7,1.3-1.6c0.4,0,0.9,0,1.3,0c0,0.2-0.1,0.4-0.1,0.6c-0.1,0.4-0.2,0.9-0.4,1.3
					c-0.4,1-0.9,1.9-1.3,2.8c-0.1,0.3-0.2,0.5-0.3,0.8c-0.2,0.3-0.3,0.6-0.4,0.9c-0.1,0.1-0.1,0.2-0.2,0.1c-1.1-0.4-2.1-1-3.1-1.6
					c-0.1-0.1-0.2-0.1-0.3-0.1c0.1,0.1,0.1,0.2,0.2,0.2c0.9,1,1.9,1.9,3,2.7c0.1,0.1,0.2,0.2,0.2,0.3c0,0.9,0.3,1.5,1.1,2
					c0.9,0.5,1.9,0.7,3,0.6c0,0.1-0.1,0.1-0.2,0.2c-0.1,0.1-0.3,0.1-0.4,0.2c-0.5,0.2-0.9,0.3-1.4,0.5c-0.4,0.1-0.8,0.2-1.2,0.2
					c-1.2,0.2-2.5,0.2-3.7,0c-0.5-0.1-0.9-0.2-1.4-0.3c-0.4-0.2-0.9-0.3-1.3-0.5c-0.5-0.3-1-0.5-1.5-0.8
					C15.8,52.7,15.7,52.6,15.6,52.6z"/>
				<path class="st5" d="M12,42.6c-0.2,0.2-0.3,0.5-0.4,0.7c-0.4,0.9-0.8,1.8-1,2.8c-0.1-0.1-0.1-0.2-0.1-0.3
					c-0.4-1.3-0.5-2.7-0.4-4.1c0.1-1.8,0.6-3.5,1.5-5.1c0.9-1.5,2-2.8,3.5-3.8c1.6-1.1,3.4-1.8,5.3-2.1c2.7-0.3,5.3,0.2,7.6,1.6
					c2,1.2,3.6,2.9,4.6,5c0.2,0.3,0.3,0.7,0.4,1c0,0.1,0.1,0.1,0,0.2c-0.2-0.2-0.3-0.4-0.5-0.5c0.1,0,0.1-0.1,0-0.1
					c0-0.1-0.1-0.2-0.1-0.3C32.3,37,32,36.5,31.5,36c-0.6-0.5-1.4-0.5-2,0c-0.5,0.4-0.8,0.9-1.1,1.5c-0.2,0.5-0.4,1.1-0.5,1.6
					c0,0.1-0.1,0.3,0,0.4c0,0.1-0.1,0.2-0.1,0.3c0,0-0.1,0-0.1,0c-0.2-0.2-0.4-0.4-0.6-0.5c-0.3-0.3-0.7-0.5-1.1-0.7
					c0,0-0.1-0.1-0.1-0.1c-0.1-0.1-0.1-0.3-0.2-0.4c-0.4-0.7-1-1.3-1.6-1.8c-1-0.8-2.2-1.2-3.5-1.2c-0.8,0-1.5,0.1-2.2,0.4
					c-0.4,0.1-0.8,0.3-1.1,0.6c-0.6,0.4-1.2,0.9-1.6,1.5c-0.4,0.6-0.8,1.2-0.9,1.8c-0.4,0.4-0.8,0.7-1.1,1.1
					C12.9,41.2,12.4,41.9,12,42.6z"/>
				<path class="st4" d="M27.7,39.9c0,0.3,0.1,0.5,0.2,0.7c0.1,0.3,0.2,0.7,0.3,1.1c0,0.1,0,0.2,0,0.3c-0.3,1-0.8,1.9-1.5,2.8
					c-0.7,0.9-1.5,1.7-2.3,2.6c-0.2,0.2-0.5,0.5-0.7,0.7c0-0.3,0.2-0.5,0.3-0.8c0.4-1,0.9-1.9,1.3-2.8c0.2-0.4,0.3-0.8,0.4-1.3
					c0-0.2,0.1-0.4,0.1-0.6c0.1-0.1,0-0.3,0.1-0.4c0.1-0.7,0.2-1.5,0.2-2.2c0-0.5,0-0.9,0-1.4c0.4,0.2,0.7,0.5,1.1,0.7
					c0.2,0.2,0.4,0.3,0.6,0.5C27.6,39.9,27.6,39.9,27.7,39.9C27.7,39.9,27.7,39.9,27.7,39.9z"/>
				<path class="st6" d="M27.8,39.6c-0.1-0.2,0-0.3,0-0.4c0.1-0.6,0.3-1.1,0.5-1.6c0.3-0.6,0.6-1.1,1.1-1.5c0.6-0.5,1.4-0.5,2,0
					c0.5,0.4,0.8,1,1.1,1.6c0,0.1,0.1,0.2,0.1,0.3c0,0.1,0,0.1,0,0.1c-0.4-0.4-0.8-0.7-1.3-0.8c-0.8-0.2-1.5,0-2.1,0.5
					c-0.6,0.4-1,1-1.3,1.6C27.9,39.5,27.8,39.5,27.8,39.6z"/>
				<path class="st7" d="M33.2,46.3c-0.1-0.1-0.2-0.2-0.3-0.3c-0.8-1.1-1.7-2.2-2.5-3.2c0,0,0,0,0-0.1c0-0.1,0.1-0.1,0.1-0.1
					c0.4,0,0.8,0,1.1,0c0,0.3,0.1,0.7,0.3,0.9c0.2,0.3,0.6,0.3,0.8,0c0.1-0.2,0.2-0.4,0.3-0.5c0.1-0.1,0.3-0.3,0.4-0.4
					c0.1,0,0.1,0,0.2,0c0.3,0,0.3,0,0.3,0.3c-0.1,0.9-0.2,1.8-0.4,2.6C33.4,45.8,33.3,46.1,33.2,46.3z"/>
				<path class="st6" d="M33,43c-0.1,0.2-0.1,0.4-0.3,0.5c-0.2,0.3-0.6,0.3-0.8,0c-0.2-0.3-0.3-0.6-0.3-0.9c0-0.3,0.1-0.6,0.2-0.8
					c0,0,0.1,0,0.1-0.1c0.3-0.3,0.6-0.3,0.8,0c0,0,0.1,0.1,0.1,0.1c0,0.1,0.1,0.3,0.1,0.4C33,42.5,33,42.8,33,43z M32.6,42.1
					c0-0.3-0.1-0.5-0.3-0.5c-0.1,0-0.3,0.2-0.3,0.5c0,0.2,0.1,0.4,0.2,0.4C32.5,42.5,32.6,42.3,32.6,42.1z"/>
				<path class="st8" d="M32.9,41.9C32.8,41.8,32.8,41.8,32.9,41.9c-0.3-0.5-0.6-0.5-0.9-0.1c0,0-0.1,0-0.1,0.1
					c-0.1-0.2,0-0.3,0.1-0.4c0.1-0.5,0.2-1.1,0.3-1.6c0-0.1,0-0.1,0.1-0.2c0,0,0,0,0.1,0c0.1,0.6,0.3,1.2,0.4,1.8
					C32.8,41.5,32.9,41.7,32.9,41.9z"/>
				<path class="st5" d="M33,43c0-0.3,0-0.5,0-0.8c0.2,0.1,0.3,0.2,0.4,0.4C33.2,42.8,33.1,42.9,33,43z"/>
				<path class="st6" d="M23.7,48.1c0.3-0.2,0.5-0.5,0.7-0.7c0.8-0.8,1.6-1.6,2.3-2.6c0.6-0.8,1.2-1.8,1.5-2.8
					c0.1,0.1,0.1,0.3,0.1,0.4c0,0.6,0.1,1.2,0,1.8c-0.1,0.9-0.5,1.7-0.9,2.5c-0.3,0.6-0.6,1.1-1,1.7c-0.1,0-0.1,0.1-0.1,0.2
					c0,0,0,0.1-0.1,0.1c-0.1,0-0.1,0-0.1,0.1c0,0,0,0.1,0,0.1c-0.1,0-0.1,0.1-0.1,0.2c0,0.1,0,0.1,0,0.2c-0.1,0.1-0.1,0.2-0.1,0.3
					c0,0.1,0,0.1,0,0.2c-0.1,0-0.1,0.1-0.1,0.1c-0.1,0.9,0.1,1.7,0.6,2.5c0,0.1,0.1,0.1,0.2,0.1l0,0c0,0.1,0,0.1,0.1,0.2
					c0.1,0.2,0.3,0.3,0.4,0.4c0,0-0.1,0-0.1,0c-1,0.1-2-0.1-3-0.6c-0.8-0.4-1.1-1.1-1.1-2c0-0.2,0-0.2-0.2-0.3
					c-1.1-0.7-2.1-1.7-3-2.7c-0.1-0.1-0.1-0.1-0.2-0.2c0.1,0,0.2,0.1,0.3,0.1c1,0.7,2,1.2,3.1,1.6c0.2,0.1,0.2,0,0.2-0.1
					C23.4,48.7,23.4,48.4,23.7,48.1z"/>
				<path class="st6" d="M18.7,54c0.5,0.1,0.9,0.2,1.4,0.3c1.2,0.2,2.5,0.2,3.7,0c0.4-0.1,0.8-0.2,1.2-0.2c0,0,0.1,0.1,0.1,0.1
					c0.4,0.1,0.7,0.2,1.1,0.3c0.2,0.1,0.3,0.2,0.5,0.2c0.2,0.5,0.2,0.5-0.4,0.5c-3,0-6.1,0-9.1,0c-0.4,0-0.4,0-0.2-0.3
					c0-0.1,0.1-0.1,0.1-0.2c0.5-0.2,1-0.4,1.5-0.5C18.7,54,18.7,54,18.7,54z"/>
				<path class="st5" d="M26.7,54.6c-0.2,0-0.4-0.1-0.5-0.2c-0.4-0.1-0.7-0.2-1.1-0.3c0,0-0.1,0-0.1-0.1c0.5-0.2,0.9-0.3,1.4-0.5
					C26.6,53.9,26.6,54.2,26.7,54.6z"/>
				<path class="st5" d="M18.7,54c0,0,0,0.1-0.1,0.1c-0.5,0.1-1,0.4-1.5,0.5c0.1-0.3,0.2-0.6,0.3-0.9c0-0.1,0-0.1,0-0.2
					C17.9,53.7,18.3,53.8,18.7,54z"/>
				<path class="st9" d="M27.1,53.1c-0.1-0.2-0.3-0.3-0.4-0.4c0-0.1-0.1-0.1-0.1-0.2c0.1,0,0.1,0.1,0.2,0.1c0.2,0.4,0.6,0.4,1,0.3
					c0.1,0,0.2-0.1,0.3,0C27.8,53.1,27.5,53.1,27.1,53.1z"/>
				<path class="st10" d="M22.7,37.3c-1.7-0.3-3.3-0.2-4.9,0.4c-1,0.4-2,0.9-2.8,1.6c-0.1,0.1-0.1,0.1-0.2,0.2
					c-0.4,0.4-0.8,0.7-1.1,1.1c-0.5,0.6-1.1,1.3-1.4,2c0.1,0,0.1,0,0.2,0c1.6,0,3.3,0,4.9,0c0.1-0.1,0.2-0.1,0.3-0.1
					c1.3-0.3,2.6-0.6,3.9-1c0.1,0,0.1,0,0.2,0c0.1,0,0.1-0.1,0.2-0.1c0-0.2,0.1-0.4,0.1-0.6c0.3-0.9,0.6-1.7,0.8-2.6c0,0,0,0,0,0
					C22.7,37.9,22.6,37.6,22.7,37.3z"/>
				<path class="st11" d="M25.9,38.6C25.9,38.6,25.8,38.5,25.9,38.6c-0.7-0.4-1.4-0.7-2-1c-0.4-0.1-0.8-0.2-1.2-0.3
					c0,0.3,0,0.6,0.1,0.9c0,0,0,0,0,0c0.1,0.2,0.1,0.4,0.2,0.6c0.3,0.9,0.6,1.7,0.8,2.6c0,0,0,0.1,0,0.1c0.2,0.3,0.5,0.6,0.5,0.9
					c0,0.1,0,0.2,0,0.3c0.4,0,0.9,0,1.3,0c0.1-0.1,0-0.3,0.1-0.4c0.1-0.7,0.2-1.5,0.2-2.2C25.9,39.5,25.9,39.1,25.9,38.6z"/>
				<path class="st6" d="M21.6,41.5c0.1,0,0.1-0.1,0.2-0.1c0,0,0.1,0,0.1-0.1c0.6-0.4,1.2-0.4,1.8,0c0,0,0.1,0.1,0.1,0
					c0.2,0.3,0.5,0.6,0.5,0.9c0,0.1,0,0.2,0,0.3c-0.1,0.9-0.5,1.4-1.3,1.6c-0.5,0.1-0.9,0-1.3-0.3c-0.1-0.1-0.2-0.1-0.2-0.2
					c0-0.1,0-0.1-0.1-0.2c-0.3-0.5-0.4-0.9-0.2-1.4C21.4,41.9,21.5,41.8,21.6,41.5z M23.4,41.9c0-0.3-0.3-0.6-0.6-0.6
					c-0.3,0-0.6,0.3-0.6,0.6c0,0.3,0.3,0.6,0.6,0.6C23.1,42.5,23.3,42.2,23.4,41.9z"/>
				<path class="st5" d="M21.6,41.5c0,0.2-0.2,0.3-0.3,0.5c-0.2,0.5-0.1,1,0.2,1.4c0,0.1,0.1,0.1,0.1,0.2c-0.5-0.1-1-0.2-1.5-0.4
					c-0.9-0.2-1.8-0.4-2.8-0.7c0,0,0,0-0.1,0c0.1-0.1,0.2-0.1,0.3-0.1c1.3-0.3,2.6-0.6,3.9-1C21.4,41.5,21.5,41.5,21.6,41.5z"/>
				<path class="st6" d="M25.8,38.5c-0.6-0.3-1.3-0.7-2-0.9c-2-0.7-4.1-0.6-6.1,0.1c-1,0.4-2,0.9-2.8,1.6c-0.1,0.1-0.1,0.1-0.2,0.2
					c0.1-0.7,0.5-1.3,0.9-1.8c0.4-0.6,1-1.1,1.6-1.5c0.3-0.2,0.7-0.4,1.1-0.6c0.7-0.3,1.5-0.4,2.2-0.4c1.3,0.1,2.5,0.4,3.5,1.2
					c0.7,0.5,1.2,1.1,1.6,1.8C25.7,38.2,25.7,38.4,25.8,38.5z"/>
				<path class="st6" d="M26.6,52.3c0,0.1,0.1,0.1,0.1,0.2c-0.1,0-0.1-0.1-0.2-0.1c-0.5-0.8-0.7-1.6-0.6-2.5c0-0.1,0-0.1,0.1-0.1
					c0,0.1,0,0.1,0,0.2c-0.1,0.6,0.1,1.2,0.3,1.7"/>
				<path class="st6" d="M26.2,48.9c0,0.1,0,0.1-0.1,0.2"/>
				<path class="st6" d="M26.4,48.4c0,0.1,0,0.1-0.1,0.2"/>
				<path class="st7" d="M32.6,42.1c0,0.2-0.1,0.4-0.3,0.4c-0.1,0-0.2-0.2-0.2-0.4c0-0.3,0.1-0.5,0.3-0.5
					C32.5,41.6,32.6,41.8,32.6,42.1z"/>
				<path class="st8" d="M23.8,41.4c0,0-0.1,0-0.1,0c-0.6-0.4-1.2-0.4-1.8,0c0,0-0.1,0-0.1,0.1c0-0.2,0.1-0.4,0.1-0.6
					c0.3-0.9,0.6-1.7,0.8-2.6c0,0,0,0,0-0.1c0.1,0.2,0.1,0.4,0.2,0.6C23.2,39.6,23.5,40.4,23.8,41.4C23.8,41.3,23.8,41.4,23.8,41.4z
					"/>
				<path class="st7" d="M23.4,41.9c0,0.3-0.3,0.6-0.6,0.6c-0.3,0-0.6-0.3-0.6-0.6c0-0.3,0.3-0.6,0.6-0.6
					C23.1,41.2,23.4,41.5,23.4,41.9z"/>
			</g>
		</g>
		<g>
			<path class="st3" d="M38.7,40.2c-0.1-0.8-0.3-1.6-0.5-2.3c-0.3-1-0.7-2-1.1-2.9c-0.3-0.6-0.6-1.2-1-1.8c-0.4-0.6-0.8-1.2-1.3-1.8
				c-0.8-0.9-1.7-1.7-2.6-2.5c-0.7-0.6-1.5-1.1-2.3-1.5c-1-0.5-2-0.9-3-1.2c-0.7-0.2-1.5-0.4-2.2-0.5c-0.6-0.1-1.2-0.2-1.7-0.2
				c-0.7,0-1.5,0-2.2,0c-0.9,0.1-1.8,0.2-2.7,0.4c-1.2,0.3-2.4,0.7-3.6,1.3c-1.3,0.7-2.6,1.5-3.7,2.5C10,30.4,9.5,31,8.9,31.6
				c-0.7,0.8-1.3,1.8-1.8,2.7c-0.5,0.9-0.9,1.8-1.2,2.7C5.5,38,5.3,39,5.2,40C5.1,40.5,5,41.1,5,41.6c0,1.2,0,2.4,0.2,3.7
				c0.2,0.9,0.4,1.8,0.7,2.6c0.3,1,0.7,1.9,1.2,2.8c0.3,0.5,0.5,0.9,0.8,1.4c0.7,1,1.5,1.9,2.4,2.8c0.2,0.2,0.3,0.3,0.5,0.4
				c0.4-0.3,0.7-0.7,1.1-1.1c0.8-0.8,1.7-1.4,2.7-2c0.1,0,0.1-0.1,0.2-0.1c0-0.1,0-0.1-0.1-0.2c-1-0.7-1.8-1.6-2.5-2.6
				c-0.6-0.9-1.1-1.8-1.4-2.8c-0.1-0.1-0.1-0.3-0.1-0.4c-0.1-0.1-0.1-0.2-0.1-0.3c-0.4-1.3-0.5-2.7-0.4-4.1c0.1-1.8,0.6-3.5,1.5-5.1
				c0.9-1.5,2-2.8,3.5-3.8c1.6-1.1,3.4-1.8,5.3-2.1c2.7-0.3,5.3,0.2,7.6,1.6c2,1.2,3.6,2.9,4.6,5c0.2,0.3,0.3,0.7,0.4,1
				c0,0,0,0.1,0,0.1c0.5,1.1,0.7,4.3,0.7,4.3l0,0c0,0,0,0.1,0,0.2c-0.1,0.9-0.2,1.8-0.4,2.6c-0.1,0.3-0.2,0.5-0.2,0.8
				c0.2,0.3,0.4,0.5,0.5,0.8c0.3,0.5,0.7,0.9,1,1.4c0.1,0.1,0.1,0.2-0.1,0.3c-0.6,0.6-1.3,1.2-2,1.7c-0.9,0.7-1.9,1.3-3,1.8
				c-0.1,0-0.1,0.1-0.2,0.1c0.3,0.2,0.6,0.4,0.9,0.6c0.9,0.6,1.6,1.3,2.3,2.1c0,0,0.1,0,0.1,0.1c0.2-0.1,0.4-0.3,0.5-0.4
				c0.6-0.6,1.3-1.3,1.8-2c0.2-0.3,0.5-0.7,0.7-1c0.5-0.8,1-1.7,1.4-2.6c0.4-0.8,0.6-1.6,0.9-2.4c0.2-0.6,0.3-1.2,0.4-1.8
				c0.1-0.7,0.2-1.4,0.2-2.1C38.9,42,38.8,41.1,38.7,40.2z"/>
			<path class="st12" d="M33.8,42.7C33.8,42.7,33.8,42.7,33.8,42.7L33.8,42.7z"/>
			<path class="st11" d="M32.1,37.6c-0.2-0.2-0.5-0.3-0.8-0.4c-0.8-0.2-1.5,0-2.1,0.5c-0.6,0.4-1,1-1.3,1.6c0,0.1-0.1,0.1-0.1,0.2
				c0,0.1-0.1,0.2-0.1,0.3c0,0,0,0,0,0.1c0.9,0.8,1.8,1.7,2.6,2.7c0,0,0,0.1,0.1,0.1c0-0.1,0.1-0.1,0.1-0.1c0.4,0,0.8,0,1.1,0
				c0-0.3,0.1-0.6,0.2-0.8c-0.1-0.2,0-0.3,0.1-0.4c0.1-0.5,0.2-1.1,0.3-1.6c0-0.1,0-0.1,0.1-0.2c0,0,0,0,0,0
				C32.3,38.9,32.1,38.3,32.1,37.6z"/>
			<path class="st13" d="M33.1,38.5c0,0,0,0.1,0,0.1c-0.2-0.2-0.3-0.4-0.5-0.5c-0.2-0.2-0.3-0.3-0.5-0.4c0,0.7,0.2,1.3,0.2,1.9
				c0,0,0,0,0,0c0.1,0.6,0.3,1.2,0.4,1.8c0,0.2,0.2,0.3,0.1,0.5c0,0.1,0.1,0.3,0.1,0.4c0.2,0.1,0.3,0.2,0.4,0.4c0.1,0,0.1,0,0.2,0
				c0.2,0,0.3,0,0.3,0.1c0,0,0,0,0,0l0,0C33.8,42.7,33.6,39.6,33.1,38.5z"/>
		</g>
		<g>
			<path class="st3" d="M28.9,54.8c-0.1-0.3-0.2-0.6-0.3-1c-0.1-0.3-0.2-0.6-0.3-0.9c-0.1,0-0.1,0-0.2,0c-0.3,0.1-0.6,0.2-1,0.2
				c0,0-0.1,0-0.1,0c0,0.1-0.1,0.1-0.2,0.2c-0.1,0.1-0.3,0.1-0.4,0.2c0.1,0.3,0.2,0.7,0.3,1.1c0.1,0.3,0.1,0.4,0.1,0.5
				c0.7,0,1.4-0.1,2.1-0.1C28.9,54.9,28.9,54.9,28.9,54.8z"/>
			<path class="st4" d="M29.7,56.5c0-0.3-0.1-0.7-0.1-1c0-0.3-0.1-0.4-0.4-0.4c-0.2,0-0.2,0-0.3-0.1c0,0-0.1,0-0.1,0.1
				c0.1,0,0.1,0.1,0.2,0c-0.1,0-0.1-0.1-0.2,0c0,0,0.1,0,0.1-0.1c0,0,0,0,0,0c-0.7,0-1.4,0-2.1,0.1c0,0.1-0.2,0.1-0.4,0.1
				c-3,0-5.9,0-8.9,0c-0.2,0-0.3,0-0.5,0c0,0-0.1,0-0.1,0c0,0,0.1,0,0.1,0c0.2,0,0.3,0,0.5,0c-0.1,0-0.1,0-0.2,0
				c-0.2,0-0.3,0-0.3-0.1c-0.7,0-1.4,0-2.2,0.1c0,0-0.1,0-0.1,0c-0.3,0-0.4,0.1-0.5,0.5c0,0.3,0,0.6-0.1,0.9c-0.1,0.3-0.1,0.6-0.2,1
				c0.2,0.1,0.5,0.3,0.8,0.4l0.4-1.8h13.6l0.4,1.8c0.3-0.1,0.5-0.2,0.7-0.4C29.8,57.1,29.7,56.8,29.7,56.5z"/>
			<path class="st14" d="M17,55.1C17,55.1,16.9,55.1,17,55.1C16.9,55.1,17,55.1,17,55.1z"/>
			<path class="st3" d="M16.9,55c0,0,0-0.1,0.1-0.3c0-0.1,0.1-0.1,0.1-0.2c0.1-0.3,0.2-0.6,0.3-0.9c0-0.1,0-0.1,0-0.2
				c-0.5-0.3-1-0.5-1.5-0.8c-0.1-0.1-0.2-0.1-0.3-0.2c-0.1,0.4-0.2,0.8-0.4,1.2c-0.1,0.4-0.2,0.8-0.4,1.2c0,0.1-0.1,0.1-0.2,0.2
				C15.5,55.1,16.2,55,16.9,55z"/>
		</g>
		<g>
			<path class="st15" d="M34.7,48.8c-0.1,0-0.2,0.1-0.3,0.1C34.6,48.8,34.7,48.8,34.7,48.8z"/>
			<path class="st3" d="M34.8,48.5c-0.3-0.5-0.7-0.9-1-1.4c-0.2-0.3-0.4-0.5-0.5-0.8c-0.1-0.1-0.2-0.2-0.3-0.3
				c-0.8-1.1-1.7-2.2-2.5-3.2c0,0,0,0,0-0.1c0,0-0.1-0.1-0.1-0.1c-0.8-1-1.7-1.9-2.6-2.7c0,0.3,0.1,0.5,0.2,0.7
				c0.1,0.3,0.2,0.7,0.3,1.1c0,0.1,0,0.2,0,0.3c0.1,0.1,0.1,0.3,0.1,0.4c0,0.6,0.1,1.2,0,1.8c-0.1,0.9-0.5,1.7-0.9,2.5
				c-0.3,0.6-0.6,1.1-1,1.7c0,0.1,0,0.1-0.1,0.2c0,0,0,0.1-0.1,0.1c0,0.1,0,0.1-0.1,0.1c0,0,0,0.1,0,0.1c0,0.1,0,0.1-0.1,0.2
				c0,0.1,0,0.1,0,0.2c0,0.1,0,0.2-0.1,0.3c0,0,0,0.1,0,0.1c5,0.7,7.7-0.4,8.5-0.7c0.1-0.1,0.2-0.1,0.3-0.1l0,0l0,0l0,0
				C34.9,48.7,34.9,48.6,34.8,48.5z"/>
			<path class="st4" d="M25.9,49.7C25.9,49.7,25.9,49.7,25.9,49.7c0,0.1,0,0.2,0,0.3c-0.1,0.6,0.1,1.2,0.3,1.7
				c0.1,0.2,0.2,0.5,0.3,0.6c0,0.1,0.1,0.1,0.1,0.2l0,0c0.1,0,0.1,0.1,0.2,0.1c0.2,0.4,0.6,0.4,1,0.3c0.1,0,0.2-0.1,0.3,0
				c0.1,0,0.1,0,0.2,0c0.1-0.1,0.2-0.2,0.4-0.2c0.3,0,0.5-0.1,0.7-0.2c0.4-0.2,0.7-0.4,1.1-0.6c0.6-0.3,1.2-0.7,1.8-1.1
				c0.4-0.3,0.7-0.5,1.1-0.8c0.4-0.3,0.7-0.6,1.1-0.9c0,0,0,0,0.1,0C33.6,49.3,31,50.3,25.9,49.7z"/>
		</g>
		<g>
			<path class="st3" d="M15.1,56l-0.4,1.8c0.5,0.2,1,0.4,1.6,0.6c1.2,0.4,2.5,0.7,3.8,0.8c0.6,0.1,1.2,0.1,1.8,0.1V56H15.1z"/>
			<path class="st4" d="M28.7,56h-6.8v3.4c0.9,0,1.9-0.1,2.8-0.2c1.4-0.2,2.8-0.6,4.1-1.2c0.1,0,0.2-0.1,0.3-0.1L28.7,56z"/>
		</g>
	</g>
	<g>
		<g>
			<path class="st3" d="M47.4,42.4c0-3.2,0-6.5,0-9.7c0-0.5-0.1-1,0.7-1c3.1,0.1,6.2-0.2,9.3,0.2c5.8,0.7,8.7,6.5,5.8,11.5
				c-1.4,2.4-3.8,3.1-6.3,3.3c-1.6,0.1-3.2,0.1-4.8,0.1c-0.8,0-1.1,0.2-1.1,1c0.1,1.5,0,3,0,4.5c0,0.5-0.1,0.8-0.7,0.8
				c-0.7,0-1.4-0.1-2.1,0c-0.8,0.1-0.9-0.3-0.9-1C47.4,48.9,47.4,45.7,47.4,42.4z M51,39.3c0,1.2,0,2.3,0,3.5c0,0.4-0.1,0.8,0.5,0.8
				c2-0.1,4.1,0.3,6.1-0.3c1.8-0.5,2.6-1.8,2.7-4c0-2.1-0.8-3.3-2.6-3.8c-2-0.6-4.1-0.4-6.2-0.4C51,35,51,35.4,51,35.8
				C51,36.9,51,38.1,51,39.3z"/>
			<path class="st4" d="M195.8,51c0,2.4,0,4.7,0,6.9c0,1-0.3,1.2-1.2,1.2c-2.2,0-2.2,0-2.2-2.2c0-6.3,0-12.6,0-18.8
				c0-1,0.3-1.3,1.3-1.2c2,0.1,2,0,2.3,2.6c1.5-1.8,3.3-2.9,5.7-2.7c2.3,0.2,4.2,1.1,5.6,2.9c2.6,3.1,2.4,8.4-0.4,11.3
				C203.8,54.1,200.4,54.2,195.8,51z M205.5,45.1c0-3.1-2-5.4-4.8-5.5c-2.8,0-4.9,2.2-5,5.3c0,3,2,5.3,4.8,5.3
				C203.3,50.3,205.5,48.1,205.5,45.1z"/>
			<path class="st4" d="M146.4,53.4c-3.2,0.1-5.9-1-8.3-2.9c-0.5-0.4-0.7-0.7-0.2-1.2c0.6-0.6,1-1.6,1.7-1.8c0.8-0.3,1.3,0.8,2,1.1
				c2,1.1,4,1.7,6.3,1.2c1.2-0.3,2.1-0.9,2.3-2.2c0.2-1.2-0.4-2.2-1.8-2.7c-1.2-0.5-2.6-0.8-3.8-1.2c-0.9-0.3-1.8-0.5-2.6-0.9
				c-2.8-1.2-3.8-2.8-3.6-5.8c0.1-2.5,1.5-4.4,4.1-5.3c3.6-1.2,7-0.5,10.2,1.5c0.6,0.4,0.6,0.8,0.2,1.3c-0.4,0.5-0.7,1.4-1.3,1.7
				c-0.7,0.4-1.2-0.5-1.8-0.8c-1.7-0.7-3.5-1-5.3-0.7c-1.1,0.2-2.1,0.7-2.3,2c-0.2,1.3,0.3,2.2,1.6,2.8c1.3,0.6,2.7,0.8,4.1,1.3
				c0.9,0.3,1.7,0.6,2.6,0.9c2.5,1.1,3.7,3,3.6,5.7c-0.1,2.4-1.6,4.4-4.1,5.4C148.7,53.3,147.5,53.4,146.4,53.4z"/>
			<path class="st3" d="M131.2,39.4c0.1-2.7,0.1-2.7,2.7-2.6c0.6,0,0.8,0.2,0.8,0.8c0,4.9,0,9.8,0,14.7c0,0.6-0.2,0.8-0.8,0.8
				c-2.5,0.1-2.5,0.1-2.7-2.2c-0.1,0-0.2,0-0.2,0c-4.1,4.7-11,2.3-12.6-3.2c-1.3-4.6,0.8-9.2,4.9-10.6
				C126.2,36,128.3,36.6,131.2,39.4z M131.3,45.1c0-3.1-2.1-5.4-4.9-5.4c-2.8,0-4.9,2.4-4.9,5.5c0,2.9,2.2,5.2,5,5.2
				C129.2,50.4,131.3,48.1,131.3,45.1z"/>
			<path class="st3" d="M80.5,48.4c2.1,2.4,5.7,2.6,8,0.6c0.8-0.7,1-0.5,1.6,0.1c1.3,1.5,1.4,1.5-0.3,2.7c-3.7,2.6-8.8,2.1-11.7-1.1
				c-2.7-3-2.7-7.9-0.1-11.1c2.9-3.5,8.9-3.9,12.2-0.9c1.1,1,1.7,2.2,2,3.7c0.1,0.7,0,1.1-0.8,1.4c-3.4,1.4-6.8,2.8-10.2,4.3
				C81.1,48.1,80.9,48.2,80.5,48.4z M84.9,39.8c-3.1,0-5.4,2.2-5.5,5c0,0.4-0.1,0.9,0.6,0.6c2.6-1.1,5.2-2.3,7.8-3.4
				c0.7-0.3,0.4-0.6,0.1-0.9C87.1,40.1,86,39.8,84.9,39.8z"/>
			<path class="st4" d="M159.8,39.7c1.7-2.3,3.6-3.2,6.1-3c2.9,0.2,5.2,2.2,5.3,5.2c0.2,3.5,0.1,7,0.1,10.5c0,0.5-0.2,0.7-0.7,0.8
				c-2.7,0.2-2.7,0.3-2.7-2.5c0-2.5,0.2-5-0.1-7.5c-0.2-2.1-1.2-3.2-3-3.4c-2.1-0.2-4,0.9-4.6,2.7c-0.3,0.8-0.4,1.7-0.4,2.6
				c0,2.3,0,4.7,0,7c0,0.8-0.2,1.1-1,1.1c-2.4,0-2.4,0-2.4-2.4c0-6.3,0-12.6,0-19c0-1.1,0.3-1.4,1.4-1.4c2,0.1,2,0,2,2.1
				C159.8,34.8,159.8,37,159.8,39.7z"/>
			<path class="st4" d="M181.6,53.4c-4.9,0-8.4-3.6-8.4-8.4c0-4.8,3.7-8.3,8.5-8.3c4.9,0,8.6,3.7,8.6,8.5
				C190.3,49.8,186.6,53.4,181.6,53.4z M186.9,45.1c0-3.1-2.1-5.3-5.1-5.3c-3,0-5.1,2.1-5.2,5.3c0,3.1,2.1,5.3,5.1,5.3
				C184.7,50.3,186.9,48.1,186.9,45.1z"/>
			<path class="st3" d="M100.1,53.4c-2.2-0.1-4.2-0.7-6-1.8c-0.6-0.4-0.8-0.7-0.4-1.5c1.1-1.7,1.1-1.7,2.8-0.8
				c1.4,0.8,2.9,1.2,4.5,1c0.9-0.1,1.6-0.5,1.8-1.5c0.2-1-0.5-1.5-1.2-1.8c-0.9-0.4-1.9-0.7-2.8-1c-0.9-0.3-1.8-0.6-2.6-1.2
				c-2.6-1.7-2.6-5.1-0.1-7c2.4-1.7,6.9-1.7,9.3,0c0.4,0.3,0.5,0.5,0.2,0.9c-0.2,0.3-0.3,0.6-0.4,0.9c-0.3,0.8-0.6,1.1-1.5,0.6
				c-1.4-0.8-2.9-1-4.5-0.7c-0.8,0.2-1.5,0.6-1.6,1.5c0,1,0.7,1.3,1.4,1.5c1.2,0.4,2.4,0.7,3.6,1.1c3,1.1,4.1,2.8,3.6,5.5
				c-0.4,2.3-2.5,3.9-5.2,4.1C100.7,53.4,100.4,53.4,100.1,53.4z"/>
			<path class="st3" d="M108.5,40.8c0-3,0-5.5,0-8c0-0.8,0.1-1.1,1-1.1c2.5,0,2.5,0,2.5,2.5c0,2.6,0,2.6,2.7,2.6
				c0.5,0,1.3-0.3,1.5,0.2c0.2,0.7,0.1,1.5,0.1,2.2c0,0.3-0.3,0.3-0.5,0.3c-0.2,0-0.4,0-0.6,0c-1,0.1-2.4-0.5-3,0.2
				c-0.5,0.6-0.2,1.9-0.2,2.9c0,1.6,0,3.3,0,4.9c0,1,0.2,1.9,1.2,2.5c0.9,0.5,1.9,0.4,2.7-0.3c0.6-0.5,0.7-0.2,1,0.3
				c1.1,1.8,1,2.1-0.9,2.9c-3.4,1.3-6.8-0.7-7.3-4.3C108.3,45.9,108.6,43,108.5,40.8z"/>
			<path class="st3" d="M70,39.9c1.2-1.6,2.4-2.7,4-3.1c0.8-0.2,1.3-0.2,1.2,0.9c0,0.2,0,0.4,0,0.6c0.2,1.2-0.1,1.9-1.6,2
				c-2.1,0.2-3.5,2.3-3.6,4.9c-0.1,2.3-0.1,4.6,0,6.9c0,0.8-0.2,1-1,1c-2.5,0-2.5,0-2.5-2.5c0-4.3,0-8.5,0-12.8c0-0.8,0.2-1.1,1-1
				C69.8,36.8,69.8,36.8,70,39.9z"/>
		</g>
	</g>
</g>
</svg>
