<?xml version="1.0" encoding="utf-8"?>
<!-- Generator: Adobe Illustrator 21.1.0, SVG Export Plug-In . SVG Version: 6.00 Build 0)  -->
<svg version="1.1" id="Capa_1" xmlns="http://www.w3.org/2000/svg" xmlns:xlink="http://www.w3.org/1999/xlink" x="0px" y="0px"
	 viewBox="0 0 214 85" style="enable-background:new 0 0 214 85;" xml:space="preserve">
<style type="text/css">
	.st0{fill-rule:evenodd;clip-rule:evenodd;fill:#92979C;}
	.st1{opacity:0.7;fill:#A6ABB0;}
	.st2{fill-rule:evenodd;clip-rule:evenodd;fill:#A6ABB0;}
	.st3{fill:#A6ABB0;}
	.st4{fill:#92979C;}
	.st5{fill:#535353;}
	.st6{fill:#292626;}
	.st7{fill:#FEFEFE;}
	.st8{fill:#8F9396;}
	.st9{fill:#892655;}
	.st10{fill:#B9BDC0;}
	.st11{fill:#DEDEDE;}
	.st12{fill:#E2DEDB;}
	.st13{fill:#BBBCBE;}
	.st14{fill:#A4957B;}
	.st15{fill:none;}
</style>
<g>
	<g id="_x32_qG5Tj_5_">
		<g>
			<path class="st4" d="M69.8,30.9c-1.5,1.7-2.8,3.1-4.2,4.6c-2.5-2.6-5.4-3.6-8.8-3.3c-2.1,0.2-4,0.9-5.5,2.3
				c-3.4,2.9-4.5,8-2.7,12.3c1.8,4.1,6.2,6.5,10.8,5.8c4.1-0.5,7-3,7.6-6.4c-3.1,0-6.1,0-9.2,0c0-1.9,0-3.5,0-5.2
				c0.2,0,0.4-0.1,0.6-0.1c4.6,0,9.2,0,13.9,0c0.7,0,0.9,0.2,1,0.9c1.2,9.7-5.2,16.5-14.1,17c-7.9,0.4-14.5-4-16.8-10.6
				c-3.9-11.2,4.1-22,15.7-21.9c4.2,0,7.8,1.3,10.9,4.1C69.3,30.6,69.6,30.7,69.8,30.9z"/>
			<path class="st4" d="M103.9,32.5c-1.3,0.5-2.4,1-3.6,1.5c-0.8-2-2.2-3.4-4.3-3.8c-2.1-0.4-4.1-0.1-5.8,1.4
				c-1.9,1.7-1.8,4.7,0.4,6c1.8,1,3.8,1.7,5.7,2.5c1.5,0.7,3,1.2,4.4,2.1c3.1,1.8,4.4,4.6,4.2,8.1c-0.2,3.6-2.1,6.1-5.3,7.5
				c-6.5,2.9-13.7-0.3-15.8-6.9c0-0.1-0.1-0.3-0.1-0.5c1.2-0.5,2.4-1,3.7-1.5c0.5,0.9,0.8,1.8,1.3,2.6c1.9,3.1,5.4,4.3,8.7,3.1
				c1.9-0.7,3.2-1.9,3.5-4c0.3-2.1-0.5-3.9-2.4-4.9c-2-1.1-4.2-1.8-6.3-2.7c-1.4-0.7-3-1.2-4.2-2.1c-4-2.9-4.3-8.5-0.7-11.9
				c5-4.7,14-3,16.5,3.1C103.7,32.1,103.8,32.3,103.9,32.5z"/>
			<path class="st4" d="M172.7,48.1c-5.6,0-11.1,0-16.6,0c-0.3,2.7,1.4,5.3,4,6.4c3.2,1.3,5.7,0.4,8.8-3.2c1.1,0.5,2.2,1.1,3.5,1.7
				c-1,1.9-2.4,3.4-4.2,4.3c-3.9,2-7.9,2.1-11.6-0.4c-3.8-2.6-5.1-6.5-4.7-10.9c0.5-4.6,2.7-8,7.2-9.4c5.7-1.7,12.9,0.6,13.5,9.9
				C172.7,46.9,172.7,47.4,172.7,48.1z M168.4,44.7c-0.3-3.2-2.7-5.1-6.1-5.1c-3,0-5.6,2.3-5.9,5.1
				C160.4,44.7,164.3,44.7,168.4,44.7z"/>
			<path class="st4" d="M123.2,58c0-0.9,0-1.8,0-2.8c-0.2,0.1-0.3,0.1-0.4,0.2c-2.4,3-5.6,3.9-9.2,3c-3.2-0.8-5.1-3.1-5.2-6.3
				c-0.3-5.1-0.1-10.2-0.1-15.3c1.2,0,2.5,0,3.9,0c0,0.4,0,0.8,0,1.2c0,3.7,0,7.3,0,11c0,0.4,0,0.9,0,1.3c0.1,1.9,0.8,3.6,2.7,4.3
				c2.1,0.8,4.2,0.7,5.9-0.9c1.7-1.5,2.2-3.4,2.2-5.6c0-3.4,0-6.7,0-10.1c0-0.4,0-0.8,0-1.3c1.3,0,2.6,0,3.9,0c0,7,0,14.1,0,21.2
				C125.8,58,124.6,58,123.2,58z"/>
			<path class="st4" d="M141.5,30.3c1.4,0,2.7,0,4,0c0,2.1,0,4.2,0,6.4c1.8,0,3.4,0,5.1,0c0,1.3,0,2.4,0,3.7c-1.7,0-3.3,0-5.1,0
				c0,1.6,0,3.1,0,4.5c0,2.1,0,4.1,0,6.2c0,3,1.4,4,4.4,3.1c0.4,1.1,0.8,2.2,1.2,3.4c-4.1,1.8-9.6,0.3-9.6-5.2c0-3.6,0-7.1,0-10.7
				c0-0.4,0-0.8,0-1.4c-1.3,0-2.5,0-3.7,0c0-1.3,0-2.4,0-3.7c1.2,0,2.4,0,3.6,0C141.5,34.6,141.5,32.5,141.5,30.3z"/>
			<path class="st4" d="M131.4,36.7c1.2,0,2.2,0,3.3,0c0.2,0,0.4,0,0.6,0c0,7.1,0,14.1,0,21.2c-1.2,0-2.5,0-3.9,0
				C131.4,50.9,131.4,43.9,131.4,36.7z"/>
			<path class="st4" d="M133.3,32.2c-1.5,0-2.8-1.3-2.8-2.8c0-1.5,1.3-2.8,2.8-2.8c1.5,0,2.8,1.3,2.8,2.8
				C136.2,30.9,134.9,32.2,133.3,32.2z"/>
		</g>
	</g>
</g>
</svg>
