<?xml version="1.0" encoding="utf-8"?>
<!-- Generator: Adobe Illustrator 19.1.0, SVG Export Plug-In . SVG Version: 6.00 Build 0)  -->
<svg version="1.1" id="Capa_1" xmlns="http://www.w3.org/2000/svg" xmlns:xlink="http://www.w3.org/1999/xlink" x="0px" y="0px"
	 viewBox="0 0 368.3 65.7" style="enable-background:new 0 0 368.3 65.7;" xml:space="preserve">
<style type="text/css">
	.st0{fill:#00A4D4;}
	.st1{fill:#004D66;}
	.st2{fill:#FFFFFF;}
</style>
<g>
	<g>
		<path class="st0" d="M11.5,29.5c-0.7-4.1-1.1-8.7-1-13.7c8.4,0.8,15.1-1.1,19.8-6.1c2.4,2.5,5.3,4.3,8.6,5.2l8.8-4.7
			c-7.1-0.7-12.9-3.4-17.4-8.2C24,8.9,15,11.4,3.7,10.3c-0.1,8.4,0.6,15.8,2.2,22.2L11.5,29.5z"/>
		<path class="st1" d="M56.8,10.3c-2,0.2-3.9,0.3-5.8,0.2l-11,5.8v39.9C51.6,47.9,57.1,32.6,56.8,10.3z"/>
		<path class="st1" d="M19,27.5L6,34.4c2.5,9.2,6.8,16.2,13,21V27.5z"/>
		<path class="st1" d="M21,26.2v30.9c2.7,1.7,5.6,3.1,8.7,4.1c2.7-0.9,6.2-2.1,8.3-3.5V17.4L21,26.2z M30.8,35.5l1.4,5h-4.4l1.4-5
			c-1.4-0.4-2.5-1.7-2.5-3.3c0-1.8,1.5-3.4,3.3-3.4c1.8,0,3.3,1.5,3.3,3.4C33.3,33.8,32.3,35.2,30.8,35.5z"/>
	</g>
	<g>
		<path class="st2" d="M77.8,16.9h4.3l2.7,7.7l2.7-7.7h4.3l-4.1,10.6l3,7.4l6.8-18h5.1L92.8,40h-3.9l-4.1-9.7L80.6,40h-3.9
			l-9.7-23.2h5l6.8,18l3-7.4L77.8,16.9z"/>
		<path class="st2" d="M121.6,36.1v4H105V16.8h16.3v4h-11.7v5.6h10.1V30h-10.1v6H121.6z"/>
		<path class="st2" d="M144.6,34.1c0,1-0.2,1.8-0.6,2.6c-0.4,0.7-1,1.4-1.7,1.9c-0.7,0.5-1.5,0.9-2.5,1.1c-0.9,0.3-1.9,0.4-3,0.4
			h-11.6V16.8h12.8c0.8,0,1.6,0.2,2.3,0.5c0.7,0.3,1.2,0.8,1.7,1.4s0.8,1.2,1.1,1.9c0.3,0.7,0.4,1.4,0.4,2.1c0,1.1-0.3,2.2-0.9,3.2
			c-0.6,1-1.4,1.7-2.6,2.2c1.4,0.4,2.5,1.1,3.3,2.1C144.2,31.3,144.6,32.5,144.6,34.1z M129.9,20.7v5.9h6.2c0.8,0,1.5-0.3,2-0.8
			c0.6-0.5,0.8-1.2,0.8-2.2c0-0.9-0.3-1.6-0.8-2.1c-0.5-0.5-1.1-0.8-1.9-0.8H129.9z M139.9,33.2c0-0.4-0.1-0.8-0.2-1.2
			c-0.1-0.4-0.3-0.7-0.6-1c-0.2-0.3-0.5-0.5-0.9-0.7c-0.3-0.2-0.7-0.2-1.1-0.2h-7.1v6.1h6.9c0.4,0,0.8-0.1,1.2-0.2
			c0.4-0.2,0.7-0.4,1-0.6s0.5-0.6,0.6-1C139.8,34,139.9,33.6,139.9,33.2z"/>
		<path class="st2" d="M162.5,22.9c-0.2-0.2-0.4-0.4-0.9-0.6c-0.4-0.3-0.9-0.5-1.5-0.8c-0.6-0.3-1.2-0.5-1.9-0.6
			c-0.7-0.2-1.4-0.3-2.1-0.3c-1.3,0-2.2,0.2-2.9,0.7c-0.6,0.5-0.9,1.1-0.9,1.9c0,0.5,0.1,0.9,0.4,1.2s0.6,0.6,1,0.8
			c0.4,0.2,1,0.5,1.7,0.7c0.7,0.2,1.5,0.4,2.4,0.6c1.2,0.3,2.2,0.6,3.2,1c1,0.3,1.8,0.8,2.4,1.3c0.7,0.5,1.2,1.2,1.5,1.9
			c0.4,0.7,0.5,1.6,0.5,2.7c0,1.2-0.2,2.3-0.7,3.2s-1.1,1.6-2,2.1c-0.8,0.5-1.8,0.9-2.8,1.2c-1.1,0.2-2.2,0.4-3.4,0.4
			c-1.8,0-3.6-0.3-5.3-0.8c-1.8-0.5-3.3-1.3-4.7-2.2l2.1-3.9c0.2,0.2,0.6,0.5,1.1,0.8c0.5,0.3,1.2,0.6,1.9,0.9
			c0.7,0.3,1.5,0.6,2.4,0.8c0.9,0.2,1.8,0.3,2.7,0.3c2.6,0,3.8-0.8,3.8-2.4c0-0.5-0.1-0.9-0.4-1.3c-0.3-0.3-0.7-0.7-1.2-0.9
			c-0.5-0.3-1.2-0.5-2-0.7c-0.8-0.2-1.6-0.5-2.6-0.7c-1.1-0.3-2.1-0.6-3-1c-0.8-0.4-1.5-0.8-2.1-1.3c-0.6-0.5-1-1.1-1.3-1.7
			s-0.4-1.4-0.4-2.3c0-1.2,0.2-2.2,0.7-3.1c0.4-0.9,1.1-1.7,1.9-2.3c0.8-0.6,1.7-1.1,2.8-1.4c1.1-0.3,2.2-0.5,3.4-0.5
			c1.7,0,3.2,0.3,4.7,0.8c1.4,0.5,2.7,1.1,3.7,1.8L162.5,22.9z"/>
		<path class="st2" d="M168.9,40V16.8h4.7V40H168.9z"/>
		<path class="st2" d="M196.4,20.8h-7.6V40h-4.6V20.8h-7.6v-4h19.9V20.8z"/>
		<path class="st2" d="M216,36.1v4h-16.6V16.8h16.3v4H204v5.6h10.1V30H204v6H216z"/>
		<path class="st2" d="M247,34.1c0,1-0.2,1.8-0.6,2.6c-0.4,0.7-1,1.4-1.7,1.9c-0.7,0.5-1.5,0.9-2.5,1.1c-0.9,0.3-1.9,0.4-3,0.4
			h-11.6V16.8h12.8c0.8,0,1.6,0.2,2.3,0.5c0.7,0.3,1.2,0.8,1.7,1.4s0.8,1.2,1.1,1.9c0.3,0.7,0.4,1.4,0.4,2.1c0,1.1-0.3,2.2-0.9,3.2
			c-0.6,1-1.4,1.7-2.6,2.2c1.4,0.4,2.5,1.1,3.3,2.1C246.6,31.3,247,32.5,247,34.1z M232.3,20.7v5.9h6.2c0.8,0,1.5-0.3,2-0.8
			c0.6-0.5,0.8-1.2,0.8-2.2c0-0.9-0.3-1.6-0.8-2.1c-0.5-0.5-1.1-0.8-1.9-0.8H232.3z M242.3,33.2c0-0.4-0.1-0.8-0.2-1.2
			c-0.1-0.4-0.3-0.7-0.6-1c-0.2-0.3-0.5-0.5-0.9-0.7c-0.3-0.2-0.7-0.2-1.1-0.2h-7.1v6.1h6.9c0.4,0,0.8-0.1,1.2-0.2
			c0.4-0.2,0.7-0.4,1-0.6s0.5-0.6,0.6-1C242.2,34,242.3,33.6,242.3,33.2z"/>
		<path class="st2" d="M260.7,36.2c1.1,0,2-0.2,2.8-0.7c0.8-0.4,1.4-1,1.8-1.7c0.5-0.7,0.8-1.5,1-2.4c0.2-0.9,0.3-1.8,0.3-2.8V16.8
			h4.6v11.8c0,1.6-0.2,3.1-0.6,4.5c-0.4,1.4-1,2.6-1.9,3.7c-0.8,1-1.9,1.9-3.3,2.5c-1.3,0.6-2.9,0.9-4.8,0.9c-1.9,0-3.5-0.3-4.9-1
			c-1.3-0.6-2.4-1.5-3.3-2.6c-0.8-1.1-1.4-2.3-1.8-3.7c-0.4-1.4-0.6-2.8-0.6-4.3V16.8h4.7v11.8c0,1,0.1,1.9,0.3,2.8
			c0.2,0.9,0.5,1.7,1,2.4c0.5,0.7,1.1,1.3,1.8,1.7C258.7,36,259.6,36.2,260.7,36.2z"/>
		<path class="st2" d="M280.5,25.2V40h-4.7V16.8h3.6L292,32.1V16.9h4.7V40h-3.8L280.5,25.2z"/>
		<path class="st2" d="M301.6,40V16.9h4.7v11l10-11.1h5.1l-9.2,10.3L322,40h-5.2l-7.4-10l-3.1,3.1V40H301.6z"/>
		<path class="st2" d="M340.8,36.1v4h-16.6V16.8h16.3v4h-11.7v5.6h10.1V30h-10.1v6H340.8z"/>
		<path class="st2" d="M344.4,40V16.8H355c1.1,0,2.1,0.2,3,0.7c0.9,0.4,1.7,1,2.4,1.8c0.7,0.7,1.2,1.6,1.6,2.5
			c0.4,0.9,0.6,1.9,0.6,2.8c0,1.5-0.4,2.9-1.2,4.1c-0.8,1.2-1.8,2.1-3.2,2.7l5.5,8.7h-5.2l-4.9-7.8H349V40H344.4z M349,28.3h5.8
			c0.4,0,0.8-0.1,1.2-0.3c0.4-0.2,0.7-0.5,1-0.8s0.5-0.7,0.6-1.2c0.2-0.5,0.2-0.9,0.2-1.5c0-0.5-0.1-1-0.3-1.5
			c-0.2-0.5-0.4-0.9-0.7-1.2c-0.3-0.3-0.7-0.6-1-0.8c-0.4-0.2-0.8-0.3-1.2-0.3H349V28.3z"/>
	</g>
	<g>
		<g>
			<path class="st2" d="M79.3,45.6v9.4h-1.8v-4h-4.3v4h-1.8v-9.4h1.8v3.8h4.3v-3.8H79.3z"/>
			<path class="st2" d="M85.4,55.1v-9.4h1.8v9.4H85.4z"/>
			<path class="st2" d="M99.9,54c-0.8,0.8-1.6,1.1-2.6,1.1c-0.6,0-1.2-0.1-1.7-0.4c-0.5-0.2-1-0.6-1.4-1c-0.4-0.4-0.7-0.9-1-1.5
				s-0.4-1.2-0.4-1.9c0-0.6,0.1-1.3,0.4-1.8s0.6-1.1,1-1.5c0.4-0.4,0.9-0.8,1.5-1c0.6-0.3,1.2-0.4,1.8-0.4c0.9,0,1.6,0.2,2.3,0.6
				c0.6,0.4,1.1,0.9,1.4,1.5l-1.4,1c-0.2-0.5-0.6-0.8-1-1.1c-0.4-0.2-0.9-0.4-1.4-0.4c-0.4,0-0.8,0.1-1.1,0.3
				c-0.3,0.2-0.6,0.4-0.8,0.7s-0.4,0.6-0.5,1c-0.1,0.4-0.2,0.8-0.2,1.2c0,0.4,0.1,0.9,0.2,1.2c0.1,0.4,0.3,0.7,0.6,1
				c0.2,0.3,0.5,0.5,0.9,0.7c0.3,0.2,0.7,0.2,1.1,0.2c0.9,0,1.7-0.4,2.5-1.3v-0.7H98v-1.3h3.4v4.8h-1.5V54z"/>
			<path class="st2" d="M115,45.6v9.4h-1.8v-4h-4.3v4h-1.8v-9.4h1.8v3.8h4.3v-3.8H115z"/>
			<path class="st2" d="M120.8,52.2v-1.6h4v1.6H120.8z"/>
			<path class="st2" d="M130.7,55.1v-9.4h4c0.4,0,0.8,0.1,1.2,0.3c0.4,0.2,0.7,0.4,0.9,0.7c0.3,0.3,0.5,0.6,0.6,1
				c0.1,0.4,0.2,0.8,0.2,1.1c0,0.4-0.1,0.8-0.2,1.2s-0.3,0.7-0.6,1s-0.6,0.5-0.9,0.7c-0.4,0.2-0.8,0.3-1.2,0.3h-2.2v3.2H130.7z
				 M132.5,50.3h2.1c0.3,0,0.6-0.1,0.8-0.4c0.2-0.3,0.3-0.6,0.3-1.1c0-0.2,0-0.5-0.1-0.6c-0.1-0.2-0.2-0.4-0.3-0.5
				c-0.1-0.1-0.2-0.2-0.4-0.3c-0.2-0.1-0.3-0.1-0.5-0.1h-2V50.3z"/>
			<path class="st2" d="M149.6,53.5v1.6h-6.5v-9.4h6.4v1.6h-4.6v2.3h4V51h-4v2.5H149.6z"/>
			<path class="st2" d="M155.2,55.1v-9.4h4.2c0.4,0,0.8,0.1,1.2,0.3c0.4,0.2,0.7,0.4,0.9,0.7c0.3,0.3,0.5,0.6,0.6,1
				c0.1,0.4,0.2,0.8,0.2,1.1c0,0.6-0.2,1.2-0.5,1.7s-0.7,0.9-1.2,1.1l2.1,3.5h-2.1l-1.9-3.2H157v3.2H155.2z M157,50.3h2.3
				c0.2,0,0.3,0,0.5-0.1c0.1-0.1,0.3-0.2,0.4-0.3s0.2-0.3,0.3-0.5c0.1-0.2,0.1-0.4,0.1-0.6c0-0.2,0-0.4-0.1-0.6
				c-0.1-0.2-0.2-0.3-0.3-0.5c-0.1-0.1-0.3-0.2-0.4-0.3c-0.2-0.1-0.3-0.1-0.5-0.1H157V50.3z"/>
			<path class="st2" d="M168.1,55.1v-9.4h6.3v1.6h-4.5v2.4h3.7v1.5h-3.7v3.9H168.1z"/>
			<path class="st2" d="M183.6,55.1c-0.7,0-1.3-0.1-1.9-0.4c-0.6-0.3-1-0.6-1.4-1.1c-0.4-0.4-0.7-1-0.9-1.5S179,51,179,50.4
				c0-0.6,0.1-1.2,0.4-1.8c0.2-0.6,0.6-1.1,1-1.5c0.4-0.4,0.9-0.8,1.5-1.1c0.6-0.3,1.2-0.4,1.8-0.4c0.7,0,1.3,0.1,1.9,0.4
				c0.6,0.3,1,0.6,1.4,1.1c0.4,0.5,0.7,1,0.9,1.5c0.2,0.6,0.3,1.2,0.3,1.7c0,0.6-0.1,1.2-0.3,1.8c-0.2,0.6-0.5,1.1-1,1.5
				s-0.9,0.8-1.5,1C184.9,55,184.3,55.1,183.6,55.1z M180.9,50.4c0,0.4,0.1,0.8,0.2,1.2s0.3,0.7,0.5,1s0.5,0.5,0.9,0.7
				c0.3,0.2,0.7,0.3,1.2,0.3c0.4,0,0.8-0.1,1.2-0.3c0.3-0.2,0.6-0.4,0.9-0.7c0.2-0.3,0.4-0.6,0.5-1c0.1-0.4,0.2-0.8,0.2-1.1
				c0-0.4-0.1-0.8-0.2-1.2c-0.1-0.4-0.3-0.7-0.5-1c-0.2-0.3-0.5-0.5-0.9-0.7c-0.3-0.2-0.7-0.3-1.1-0.3c-0.4,0-0.8,0.1-1.2,0.3
				c-0.3,0.2-0.6,0.4-0.9,0.7c-0.2,0.3-0.4,0.6-0.5,1C180.9,49.6,180.9,50,180.9,50.4z"/>
			<path class="st2" d="M193.7,55.1v-9.4h4.2c0.4,0,0.8,0.1,1.2,0.3c0.4,0.2,0.7,0.4,0.9,0.7c0.3,0.3,0.5,0.6,0.6,1
				c0.1,0.4,0.2,0.8,0.2,1.1c0,0.6-0.2,1.2-0.5,1.7s-0.7,0.9-1.2,1.1l2.1,3.5h-2.1l-1.9-3.2h-1.8v3.2H193.7z M195.6,50.3h2.3
				c0.2,0,0.3,0,0.5-0.1c0.1-0.1,0.3-0.2,0.4-0.3s0.2-0.3,0.3-0.5c0.1-0.2,0.1-0.4,0.1-0.6c0-0.2,0-0.4-0.1-0.6
				c-0.1-0.2-0.2-0.3-0.3-0.5c-0.1-0.1-0.3-0.2-0.4-0.3c-0.2-0.1-0.3-0.1-0.5-0.1h-2.2V50.3z"/>
			<path class="st2" d="M214.3,55.1v-6.2l-2.4,4.6h-1l-2.4-4.6v6.2h-1.8v-9.4h2l2.8,5.4l2.8-5.4h1.9v9.4H214.3z"/>
			<path class="st2" d="M224.9,45.6h1.6l3.6,9.4h-1.9l-0.9-2.3h-3.3l-0.9,2.3h-1.9L224.9,45.6z M227,51.4l-1.3-3.7l-1.4,3.7H227z"/>
			<path class="st2" d="M237.1,49v6h-1.8v-9.4h1.4l4.9,6.2v-6.2h1.8v9.4h-1.5L237.1,49z"/>
			<path class="st2" d="M248.9,50.3c0-0.6,0.1-1.1,0.3-1.7c0.2-0.6,0.5-1.1,0.9-1.5c0.4-0.4,0.9-0.8,1.5-1.1c0.6-0.3,1.2-0.4,2-0.4
				c0.9,0,1.6,0.2,2.2,0.6c0.6,0.4,1.1,0.9,1.4,1.5l-1.4,1c-0.1-0.3-0.3-0.5-0.4-0.7c-0.2-0.2-0.4-0.3-0.6-0.4s-0.4-0.2-0.6-0.2
				c-0.2,0-0.4-0.1-0.6-0.1c-0.5,0-0.9,0.1-1.2,0.3s-0.6,0.4-0.8,0.7c-0.2,0.3-0.4,0.6-0.5,1c-0.1,0.4-0.2,0.7-0.2,1.1
				c0,0.4,0.1,0.8,0.2,1.2c0.1,0.4,0.3,0.7,0.6,1c0.2,0.3,0.5,0.5,0.9,0.7s0.7,0.3,1.1,0.3c0.2,0,0.4,0,0.7-0.1
				c0.2-0.1,0.4-0.1,0.7-0.3c0.2-0.1,0.4-0.3,0.6-0.4c0.2-0.2,0.3-0.4,0.4-0.7l1.5,0.9c-0.2,0.4-0.4,0.7-0.6,0.9s-0.6,0.5-0.9,0.7
				c-0.3,0.2-0.7,0.3-1.1,0.4c-0.4,0.1-0.8,0.1-1.2,0.1c-0.7,0-1.3-0.1-1.8-0.4c-0.6-0.3-1-0.7-1.4-1.1c-0.4-0.5-0.7-1-0.9-1.5
				S248.9,50.9,248.9,50.3z"/>
			<path class="st2" d="M269.2,53.5v1.6h-6.5v-9.4h6.4v1.6h-4.6v2.3h4V51h-4v2.5H269.2z"/>
			<path class="st2" d="M290,45.6v9.4h-1.8v-4h-4.3v4h-1.8v-9.4h1.8v3.8h4.3v-3.8H290z"/>
			<path class="st2" d="M300.1,55.1c-0.7,0-1.3-0.1-1.9-0.4c-0.6-0.3-1-0.6-1.4-1.1c-0.4-0.4-0.7-1-0.9-1.5s-0.3-1.2-0.3-1.8
				c0-0.6,0.1-1.2,0.4-1.8c0.2-0.6,0.6-1.1,1-1.5c0.4-0.4,0.9-0.8,1.5-1.1c0.6-0.3,1.2-0.4,1.8-0.4c0.7,0,1.3,0.1,1.9,0.4
				c0.6,0.3,1,0.6,1.4,1.1c0.4,0.5,0.7,1,0.9,1.5c0.2,0.6,0.3,1.2,0.3,1.7c0,0.6-0.1,1.2-0.3,1.8s-0.5,1.1-1,1.5s-0.9,0.8-1.5,1
				C301.4,55,300.8,55.1,300.1,55.1z M297.4,50.4c0,0.4,0.1,0.8,0.2,1.2c0.1,0.4,0.3,0.7,0.5,1s0.5,0.5,0.9,0.7s0.7,0.3,1.2,0.3
				c0.4,0,0.8-0.1,1.2-0.3c0.3-0.2,0.6-0.4,0.9-0.7c0.2-0.3,0.4-0.6,0.5-1c0.1-0.4,0.2-0.8,0.2-1.1c0-0.4-0.1-0.8-0.2-1.2
				c-0.1-0.4-0.3-0.7-0.5-1c-0.2-0.3-0.5-0.5-0.9-0.7s-0.7-0.3-1.1-0.3c-0.4,0-0.8,0.1-1.2,0.3c-0.3,0.2-0.6,0.4-0.9,0.7
				c-0.2,0.3-0.4,0.6-0.5,1C297.4,49.6,297.4,50,297.4,50.4z"/>
			<path class="st2" d="M315.8,48.1c-0.1-0.1-0.2-0.1-0.3-0.3c-0.2-0.1-0.4-0.2-0.6-0.3c-0.2-0.1-0.5-0.2-0.8-0.3
				c-0.3-0.1-0.6-0.1-0.8-0.1c-0.5,0-0.9,0.1-1.1,0.3c-0.2,0.2-0.4,0.4-0.4,0.8c0,0.2,0,0.4,0.1,0.5s0.2,0.2,0.4,0.3
				c0.2,0.1,0.4,0.2,0.7,0.3c0.3,0.1,0.6,0.2,0.9,0.3c0.5,0.1,0.9,0.3,1.3,0.4c0.4,0.1,0.7,0.3,1,0.5c0.3,0.2,0.5,0.5,0.6,0.8
				c0.1,0.3,0.2,0.7,0.2,1.1c0,0.5-0.1,0.9-0.3,1.3c-0.2,0.4-0.4,0.6-0.8,0.9s-0.7,0.4-1.1,0.5c-0.4,0.1-0.9,0.2-1.3,0.2
				c-0.7,0-1.4-0.1-2.1-0.3c-0.7-0.2-1.3-0.5-1.9-0.9l0.8-1.6c0.1,0.1,0.2,0.2,0.4,0.3c0.2,0.1,0.5,0.3,0.7,0.4
				c0.3,0.1,0.6,0.2,0.9,0.3c0.3,0.1,0.7,0.1,1.1,0.1c1,0,1.5-0.3,1.5-1c0-0.2-0.1-0.4-0.2-0.5c-0.1-0.1-0.3-0.3-0.5-0.4
				s-0.5-0.2-0.8-0.3c-0.3-0.1-0.6-0.2-1-0.3c-0.5-0.1-0.8-0.3-1.2-0.4s-0.6-0.3-0.8-0.5s-0.4-0.4-0.5-0.7c-0.1-0.3-0.2-0.6-0.2-0.9
				c0-0.5,0.1-0.9,0.3-1.3c0.2-0.4,0.4-0.7,0.7-0.9c0.3-0.2,0.7-0.4,1.1-0.6c0.4-0.1,0.9-0.2,1.3-0.2c0.7,0,1.3,0.1,1.8,0.3
				c0.6,0.2,1,0.5,1.5,0.7L315.8,48.1z"/>
			<path class="st2" d="M329.4,47.3h-3v7.8h-1.8v-7.8h-3v-1.6h7.8V47.3z"/>
			<path class="st2" d="M334.7,55.1v-9.4h1.8v9.4H334.7z"/>
			<path class="st2" d="M344.4,49v6h-1.8v-9.4h1.4l4.9,6.2v-6.2h1.8v9.4h-1.5L344.4,49z"/>
			<path class="st2" d="M363.4,54c-0.8,0.8-1.6,1.1-2.6,1.1c-0.6,0-1.2-0.1-1.7-0.4c-0.5-0.2-1-0.6-1.4-1c-0.4-0.4-0.7-0.9-1-1.5
				c-0.2-0.6-0.4-1.2-0.4-1.9c0-0.6,0.1-1.3,0.4-1.8c0.2-0.6,0.6-1.1,1-1.5c0.4-0.4,0.9-0.8,1.5-1c0.6-0.3,1.2-0.4,1.8-0.4
				c0.9,0,1.6,0.2,2.3,0.6c0.6,0.4,1.1,0.9,1.4,1.5l-1.4,1c-0.2-0.5-0.6-0.8-1-1.1c-0.4-0.2-0.9-0.4-1.4-0.4c-0.4,0-0.8,0.1-1.1,0.3
				c-0.3,0.2-0.6,0.4-0.8,0.7c-0.2,0.3-0.4,0.6-0.5,1c-0.1,0.4-0.2,0.8-0.2,1.2c0,0.4,0.1,0.9,0.2,1.2c0.1,0.4,0.3,0.7,0.6,1
				c0.2,0.3,0.5,0.5,0.9,0.7s0.7,0.2,1.1,0.2c0.9,0,1.7-0.4,2.5-1.3v-0.7h-1.9v-1.3h3.4v4.8h-1.5V54z"/>
		</g>
	</g>
</g>
</svg>
